<svg width="337" height="97" viewBox="0 0 337 97" fill="none" xmlns="http://www.w3.org/2000/svg">
<g clip-path="url(#clip0)">
<path d="M150.818 75.2387V55.954H152.775V64.4336H156.362C156.683 64.4336 157.014 64.4005 157.364 64.3154C157.694 64.2492 158.035 64.1122 158.365 63.9042C158.687 63.7009 158.989 63.4032 159.273 63.025C159.556 62.6374 159.793 62.1411 159.996 61.5267L161.848 55.954H163.715L161.957 61.4983C161.659 62.4247 161.286 63.2188 160.828 63.8758C160.369 64.5234 159.812 64.9582 159.159 65.1615C160.019 65.3883 160.667 65.8374 161.102 66.4991C161.551 67.1797 161.9 67.988 162.184 68.9475L164.093 75.2387H162.042L160.223 69.2264C160.043 68.5883 159.812 68.0636 159.556 67.6666C159.296 67.2648 159.003 66.9529 158.682 66.7307C158.37 66.4991 158.035 66.3479 157.675 66.2675C157.321 66.1872 156.962 66.1446 156.584 66.1446H152.775V75.2387H150.818Z" fill="#003872"/>
<path d="M147.118 55.954V75.2387H125.46V55.954H127.416V73.4756H135.313V55.954H137.27V73.4756H145.166V55.954H147.118Z" fill="#003872"/>
<path d="M180.602 68.9948C180.602 69.9874 180.427 70.876 180.087 71.6701C179.733 72.4641 179.26 73.1448 178.641 73.7025C178.027 74.265 177.294 74.6904 176.434 74.9929C175.579 75.2907 174.648 75.4372 173.646 75.4372C172.601 75.4372 171.656 75.2812 170.806 74.9787C169.964 74.6668 169.241 74.2319 168.627 73.6694C168.027 73.1117 167.554 72.4358 167.223 71.6464C166.888 70.8524 166.718 69.959 166.718 68.9712V62.2263C166.718 61.2762 166.878 60.4018 167.205 59.6077C167.526 58.8136 167.998 58.1283 168.603 57.5658C169.213 56.9939 169.936 56.5496 170.801 56.2329C171.651 55.9115 172.601 55.7555 173.646 55.7555C174.671 55.7555 175.607 55.9115 176.462 56.2329C177.327 56.5496 178.055 56.9939 178.669 57.5658C179.288 58.1283 179.756 58.8136 180.101 59.6077C180.427 60.4018 180.602 61.2762 180.602 62.2263V68.9948ZM178.641 62.5051C178.641 61.6449 178.504 60.9075 178.23 60.2978C177.96 59.6739 177.601 59.1681 177.143 58.7711C176.684 58.3646 176.165 58.0668 175.569 57.8683C174.969 57.6792 174.336 57.58 173.66 57.58C172.975 57.58 172.318 57.6792 171.718 57.8683C171.103 58.0668 170.579 58.3646 170.13 58.7711C169.686 59.1681 169.322 59.6739 169.066 60.2978C168.811 60.9075 168.679 61.6449 168.679 62.5051V68.7396C168.679 69.6282 168.811 70.375 169.09 70.9894C169.374 71.6039 169.747 72.1049 170.22 72.4972C170.678 72.8943 171.217 73.1779 171.812 73.3669C172.408 73.556 173.027 73.6458 173.66 73.6458C174.336 73.6458 174.969 73.556 175.574 73.3669C176.179 73.1779 176.713 72.8848 177.162 72.4831C177.606 72.0813 177.96 71.5755 178.23 70.9611C178.504 70.3419 178.641 69.6045 178.641 68.7396V62.5051Z" fill="#003872"/>
<path d="M188.26 57.7501V64.6935C188.26 66.3668 188.156 67.8226 187.948 69.0562C187.726 70.2851 187.414 71.3392 187.017 72.2231C186.615 73.0975 186.119 73.8254 185.524 74.4162C184.923 75.0023 184.238 75.4939 183.473 75.8862L182.589 74.1988C183.198 73.8301 183.737 73.4047 184.196 72.9226C184.649 72.4263 185.032 71.8213 185.353 71.065C185.67 70.3277 185.911 69.4013 186.067 68.3094C186.223 67.227 186.308 65.8846 186.308 64.2965V55.954H197.924V75.2387H195.968V57.7501H188.26Z" fill="#003872"/>
<path d="M213.933 75.2387C213.668 74.4966 213.422 73.7498 213.181 72.9982C212.935 72.2562 212.68 71.5093 212.425 70.7625H204.164L202.652 75.2387H200.587C201.707 71.9962 202.822 68.7821 203.933 65.5963C205.039 62.4153 206.159 59.2012 207.269 55.954H209.344L216.064 75.2387H213.933ZM208.252 58.4922C208.082 59.0452 207.846 59.792 207.543 60.7421C207.231 61.6874 206.905 62.6847 206.565 63.7198C206.211 64.7503 205.88 65.7523 205.568 66.7071C205.247 67.6477 205.001 68.4134 204.812 68.9711H211.811C211.641 68.4134 211.404 67.6477 211.078 66.7071C210.762 65.7523 210.421 64.7503 210.072 63.7198C209.722 62.6847 209.382 61.6874 209.065 60.7421C208.748 59.792 208.507 59.0452 208.337 58.4922H208.252Z" fill="#003872"/>
<path d="M238.537 69.751C238.537 70.5168 238.41 71.2305 238.155 71.9111C237.904 72.5917 237.545 73.1684 237.068 73.66C236.595 74.1563 236.004 74.5438 235.305 74.8227C234.615 75.1016 233.816 75.2387 232.923 75.2387H225.319V55.954H236.737V57.7737H227.281V64.3201H233.003C233.93 64.3201 234.743 64.4856 235.432 64.7975C236.118 65.1237 236.694 65.5301 237.167 66.0453C237.639 66.5606 237.975 67.1372 238.197 67.78C238.419 68.4276 238.537 69.0846 238.537 69.751ZM236.576 69.751C236.576 68.6403 236.208 67.7517 235.489 67.1041C234.757 66.4707 233.797 66.1446 232.602 66.1446H227.281V73.4473H232.654C233.216 73.4473 233.736 73.3716 234.204 73.2062C234.686 73.055 235.102 72.8186 235.447 72.5114C235.792 72.2042 236.066 71.8213 236.264 71.3628C236.472 70.9043 236.576 70.375 236.576 69.751Z" fill="#003872"/>
<path d="M243.546 71.7977L247.044 66.4235L253.901 55.954H255.834V75.2434H253.877V59.3099H253.754L250.04 65.048L243.372 75.2434H241.448V55.954H243.405V71.7977H243.546Z" fill="#003872"/>
<path d="M264.847 55.7555C265.589 55.7555 266.316 55.8548 267.011 56.0391C267.711 56.2234 268.33 56.507 268.873 56.8993C269.402 57.2917 269.832 57.8021 270.158 58.4119C270.48 59.0263 270.641 59.7684 270.641 60.6145C270.641 61.1108 270.574 61.5693 270.456 62.0325C270.333 62.4862 270.149 62.9116 269.894 63.3039C269.648 63.6962 269.336 64.0366 268.972 64.3343C268.613 64.6321 268.174 64.8684 267.673 65.0339C268.23 65.2229 268.698 65.4876 269.081 65.8232C269.469 66.1588 269.776 66.5369 270.021 66.9576C270.262 67.3736 270.442 67.8131 270.541 68.2716C270.645 68.7348 270.697 69.1886 270.697 69.6376C270.697 70.6019 270.522 71.4479 270.173 72.1711C269.818 72.8943 269.341 73.4946 268.727 73.9767C268.112 74.4635 267.408 74.8322 266.595 75.0732C265.778 75.3238 264.937 75.4372 264.034 75.4372C263.438 75.4372 262.852 75.3852 262.3 75.2812C261.747 75.182 261.213 75.0449 260.731 74.8747C260.244 74.6951 259.804 74.5013 259.407 74.2792C258.996 74.057 258.647 73.8301 258.354 73.5891L259.436 72.138C259.719 72.3649 260.036 72.5681 260.395 72.7477C260.749 72.9368 261.128 73.107 261.539 73.2535C261.955 73.4 262.366 73.5229 262.8 73.6033C263.226 73.6836 263.642 73.7262 264.034 73.7262C264.719 73.7262 265.362 73.6363 265.948 73.4473C266.534 73.2582 267.039 72.9888 267.46 72.6485C267.881 72.3034 268.211 71.8875 268.438 71.4007C268.675 70.9138 268.788 70.3608 268.788 69.7369C268.788 68.5552 268.457 67.6524 267.772 66.9954C267.091 66.3526 266.217 66.0312 265.149 66.0312H262.914V64.3202H265.069C265.461 64.3202 265.872 64.2493 266.302 64.1027C266.728 63.9468 267.125 63.7293 267.488 63.4315C267.857 63.1338 268.15 62.7556 268.391 62.3019C268.618 61.8434 268.736 61.314 268.736 60.6996C268.736 60.1418 268.618 59.655 268.391 59.2485C268.15 58.8373 267.848 58.4922 267.484 58.2275C267.101 57.9676 266.666 57.769 266.17 57.6414C265.678 57.5233 265.163 57.4618 264.653 57.4618C263.864 57.4618 263.056 57.6178 262.21 57.9014C261.378 58.1897 260.679 58.5584 260.14 59.0027L259.077 57.5516C259.88 56.9702 260.721 56.5259 261.605 56.2187C262.493 55.9162 263.575 55.7555 264.847 55.7555Z" fill="#003872"/>
<path d="M286.17 75.2387V66.3337H276.208V75.2387H274.252V55.954H276.208V64.5423H286.17V55.954H288.226V75.2387H286.17Z" fill="#003872"/>
<path d="M291.945 75.2387V55.954H304.591V57.7501H293.902V64.6274H303.084V66.4235H293.902V73.4756H304.591V75.2387H291.945Z" fill="#003872"/>
<path d="M314.449 55.7555C316.495 55.7555 318.239 56.2896 319.652 57.3484L318.645 58.8845C318.083 58.4591 317.435 58.1377 316.693 57.9061C315.956 57.6887 315.209 57.58 314.449 57.58C313.83 57.58 313.234 57.6651 312.658 57.8588C312.076 58.0432 311.556 58.3362 311.084 58.7238C310.616 59.1114 310.243 59.6219 309.969 60.2458C309.69 60.8744 309.543 61.626 309.543 62.5051V68.6687C309.543 69.5431 309.694 70.2852 309.983 70.9185C310.271 71.5377 310.64 72.0529 311.103 72.4452C311.556 72.8565 312.076 73.159 312.658 73.3528C313.234 73.5513 313.811 73.6458 314.387 73.6458C315.181 73.6458 315.937 73.5371 316.684 73.3197C317.426 73.107 318.102 72.7619 318.697 72.2751L319.671 73.7829C319.137 74.2083 318.414 74.5959 317.497 74.9362C316.585 75.267 315.559 75.4372 314.449 75.4372C313.456 75.4372 312.544 75.2907 311.717 74.9882C310.885 74.6904 310.167 74.265 309.543 73.7025C308.929 73.1448 308.452 72.4641 308.107 71.6843C307.762 70.9044 307.582 70.0299 307.582 69.0515V62.0797C307.582 61.1297 307.766 60.2694 308.116 59.4943C308.475 58.7238 308.962 58.0526 309.581 57.4902C310.195 56.9324 310.914 56.5023 311.745 56.2045C312.577 55.9067 313.47 55.7555 314.449 55.7555Z" fill="#003872"/>
<path d="M334.879 75.2387C334.614 74.4966 334.368 73.7498 334.123 72.9982C333.877 72.2562 333.626 71.5093 333.371 70.7625H325.11L323.589 75.2387H321.528C322.648 71.9962 323.764 68.7821 324.869 65.5963C325.98 62.4153 327.1 59.2012 328.215 55.954H330.285L337.005 75.2387H334.879ZM329.198 58.4922C329.028 59.0452 328.787 59.792 328.485 60.7421C328.173 61.6874 327.847 62.6847 327.506 63.7198C327.157 64.7503 326.821 65.7523 326.514 66.7071C326.193 67.6477 325.942 68.4134 325.753 68.9711H332.747C332.582 68.4134 332.341 67.6477 332.02 66.7071C331.703 65.7523 331.377 64.7503 331.013 63.7198C330.663 62.6847 330.323 61.6874 330.006 60.7421C329.69 59.792 329.449 59.0452 329.279 58.4922H329.198Z" fill="#003872"/>
<path d="M91.6411 41.4006C78.5507 46.633 63.5275 49.3083 47.6772 49.3083C33.0415 49.3083 19.2847 46.5668 6.79449 42.5445C2.33808 41.1076 2.45622 38.5457 3.03749 37.5768C-1.0125 44.2697 -1.0125 52.7162 3.03749 59.4233C7.06858 66.0973 12.1724 72.6484 18.264 78.7458C24.3602 84.8384 30.9149 89.9384 37.5971 93.9655C44.2841 98.0115 52.7291 98.0115 59.416 93.9655C66.0983 89.9384 72.6435 84.8384 78.735 78.7458C84.836 72.6484 89.9351 66.0973 93.9662 59.4233C98.002 52.7256 98.0115 44.2886 93.9662 37.5815C94.4341 38.3567 94.1552 40.3891 91.6411 41.4006Z" fill="url(#paint0_linear)"/>
<path d="M18.2655 18.259C12.174 24.3516 7.07018 30.9075 3.03909 37.5767C2.45782 38.5457 2.33967 41.1075 6.79608 42.5444C19.2863 46.5668 33.0431 49.3083 47.6788 49.3083C63.5291 49.3083 78.5523 46.633 91.6427 41.4006C94.1568 40.3891 94.4357 38.3566 93.9678 37.5815C89.9367 30.9075 84.8376 24.3516 78.7366 18.259C72.6451 12.1616 66.0999 7.06632 59.4176 3.02977C56.0718 1.0115 52.2912 0 48.5058 0C44.7205 0 40.9351 1.0115 37.5893 3.02977C30.907 7.06632 24.3618 12.1616 18.2655 18.259Z" fill="url(#paint1_linear)"/>
<path d="M18.2655 18.259C12.174 24.3516 7.07018 30.9075 3.03909 37.5767C2.45782 38.5457 2.33967 41.1075 6.79608 42.5444C19.2863 46.5668 33.0431 49.3083 47.6788 49.3083C63.5291 49.3083 78.5523 46.633 91.6427 41.4006C94.1568 40.3891 94.4357 38.3566 93.9678 37.5815C89.9367 30.9075 84.8376 24.3516 78.7366 18.259C72.6451 12.1616 66.0999 7.06632 59.4176 3.02977C56.0718 1.0115 52.2912 0 48.5058 0C44.7205 0 40.9351 1.0115 37.5893 3.02977C30.907 7.06632 24.3618 12.1616 18.2655 18.259Z" fill="url(#paint2_linear)"/>
<path d="M58.9057 64.8542L42.5498 48.5L58.9057 32.1459V17.7958L28.207 48.5L58.9057 79.2043V64.8542Z" fill="white"/>
<path d="M141.067 26.5117C140.132 25.727 139.134 25.1835 138.052 24.8762C136.979 24.569 135.93 24.4178 134.91 24.4178C134.243 24.4178 133.567 24.517 132.901 24.7014C132.235 24.8904 131.635 25.2071 131.11 25.6372C130.585 26.0768 130.155 26.644 129.82 27.3435C129.489 28.0384 129.324 28.8892 129.324 29.877V38.6544C129.324 39.647 129.489 40.4836 129.82 41.169C130.155 41.8496 130.59 42.4121 131.129 42.8469C131.672 43.2865 132.268 43.6032 132.925 43.8064C133.577 44.0097 134.243 44.1136 134.91 44.1136C135.93 44.1136 136.956 43.9624 137.986 43.6788C139.016 43.381 140.065 42.8327 141.11 42.0197L143.945 46.6471C142.839 47.5735 141.488 48.3062 139.881 48.8308C138.288 49.3555 136.601 49.6202 134.82 49.6202C133.397 49.6202 131.998 49.4122 130.633 49.0057C129.257 48.5992 128.029 47.9989 126.965 47.1907C125.883 46.3872 125.014 45.3898 124.338 44.1798C123.667 42.9651 123.341 41.5518 123.341 39.9211V28.6575C123.341 27.0505 123.662 25.6467 124.319 24.4414C124.981 23.2361 125.831 22.2246 126.895 21.4069C127.958 20.5892 129.172 19.9747 130.538 19.5682C131.913 19.1617 133.307 18.9585 134.735 18.9585C136.483 18.9585 138.156 19.1948 139.782 19.658C141.393 20.126 142.783 20.8681 143.945 21.8843L141.067 26.5117Z" fill="#003872"/>
<path d="M165.96 29.7022L162.987 34.2871C162.647 34.8401 162.212 35.5207 161.707 36.3195C161.192 37.123 160.634 37.988 160.024 38.9144C159.41 39.8456 158.781 40.8145 158.143 41.8071C157.501 42.795 156.882 43.7498 156.291 44.6857C155.691 45.6121 155.133 46.4818 154.609 47.2806C154.084 48.0794 153.649 48.7553 153.295 49.3083H147.884V19.2233H153.867V39.009H154.041L160.313 29.187L166.716 19.2233H172.16V49.3083H166.177V29.7022H165.96Z" fill="#003872"/>
<path d="M194.388 49.3083V36.7307H183.287V49.3083H177.313V19.2233H183.287V31.3613H194.388V19.2233H200.451V49.3083H194.388Z" fill="#003872"/>
<path d="M205.608 19.2233H226.35V24.5975H211.591V31.4936H224.209V36.8678H211.591V43.9388H226.35V49.3083H205.608V19.2233Z" fill="#003872"/>
<path d="M244.159 19.2233C245.648 19.2233 246.929 19.5069 248.001 20.0741C249.079 20.6413 249.977 21.3739 250.69 22.2814C251.399 23.1747 251.929 24.191 252.259 25.3112C252.595 26.4361 252.756 27.5374 252.756 28.6104C252.756 29.7164 252.567 30.8272 252.174 31.9332C251.777 33.0345 251.215 34.0413 250.468 34.9393C249.726 35.8516 248.805 36.5842 247.723 37.1419C246.631 37.7139 245.383 38.0022 243.985 38.0022H236.693V49.3083H230.705V19.2233H244.159ZM236.693 32.6375H242.813C244.174 32.6375 245.213 32.2499 245.908 31.4889C246.607 30.7279 246.952 29.7778 246.952 28.6293C246.952 27.4618 246.603 26.4976 245.88 25.7366C245.175 24.9756 244.145 24.5975 242.813 24.5975H236.693V32.6375Z" fill="#003872"/>
<path d="M256.17 49.3083V19.2233H276.869V24.5927H262.157V49.3083H256.17Z" fill="#003872"/>
<path d="M297.354 29.7022L294.372 34.2871C294.027 34.8401 293.607 35.5207 293.096 36.3195C292.581 37.123 292.019 37.988 291.409 38.9144C290.795 39.8456 290.171 40.8145 289.538 41.8071C288.891 42.795 288.271 43.7498 287.676 44.6857C287.085 45.6121 286.523 46.4818 286.003 47.2806C285.474 48.0794 285.039 48.7553 284.685 49.3083H279.278V19.2233H285.256V39.009H285.431L291.702 29.187L298.106 19.2233H303.555V49.3083H297.572V29.7022H297.354Z" fill="#003872"/>
<path d="M330.972 19.2186V49.3084H324.984V37.3878H321.497C320.882 37.3878 320.334 37.4493 319.838 37.5674C319.342 37.6809 318.893 37.8888 318.482 38.1772C318.071 38.4702 317.711 38.872 317.395 39.3777C317.069 39.8835 316.795 40.5499 316.558 41.3676L314.285 49.3131H307.702L310.226 41.0651C310.575 39.9497 310.972 38.9712 311.412 38.1157C311.851 37.2507 312.527 36.5748 313.458 36.088C312.556 35.8233 311.804 35.4168 311.199 34.8827C310.575 34.3439 310.079 33.7294 309.687 33.0251C309.29 32.3303 309.002 31.5788 308.832 30.7753C308.657 29.9765 308.572 29.1871 308.572 28.3978C308.572 27.2539 308.747 26.1384 309.115 25.0277C309.474 23.9264 310.041 22.9385 310.788 22.083C311.544 21.2227 312.499 20.5374 313.647 20.008C314.8 19.4833 316.152 19.2234 317.721 19.2234H330.972V19.2186ZM324.984 24.5975H318.964C317.475 24.5975 316.383 24.9615 315.684 25.6847C314.989 26.4126 314.64 27.4004 314.64 28.6577C314.64 29.8205 315.003 30.7044 315.727 31.2999C316.454 31.9002 317.503 32.1885 318.874 32.1885H324.984V24.5975Z" fill="#003872"/>
</g>
<defs>
<linearGradient id="paint0_linear" x1="48.4995" y1="1.44015" x2="48.4995" y2="96.8492" gradientUnits="userSpaceOnUse">
<stop stop-color="#AD0C20"/>
<stop offset="0.2485" stop-color="#C0071F"/>
<stop offset="0.7333" stop-color="#D7021C"/>
<stop offset="1" stop-color="#EC7855"/>
</linearGradient>
<linearGradient id="paint1_linear" x1="48.4534" y1="1.44012" x2="48.4534" y2="96.8491" gradientUnits="userSpaceOnUse">
<stop stop-color="#7C1824"/>
<stop offset="0.2485" stop-color="#7C1824"/>
<stop offset="0.7333" stop-color="#C1001F"/>
<stop offset="1" stop-color="#D68162"/>
</linearGradient>
<linearGradient id="paint2_linear" x1="48.452" y1="49.1177" x2="48.452" y2="0.711601" gradientUnits="userSpaceOnUse">
<stop stop-color="#E20A1D"/>
<stop offset="0.2058" stop-color="#E53428"/>
<stop offset="0.5413" stop-color="#E64731"/>
<stop offset="0.9626" stop-color="#E85439"/>
<stop offset="1" stop-color="#EA6848"/>
</linearGradient>
<clipPath id="clip0">
<rect width="337" height="97" fill="white"/>
</clipPath>
</defs>
</svg>
