<svg width="594" height="371" fill="none" xmlns="http://www.w3.org/2000/svg"><path d="M111.483 76.16v17.48h3.2v12.2h-5.36V98h-14.68v7.84h-5.36v-12.2h1.84c.96-1.467 1.773-3.133 2.44-5a41.167 41.167 0 0 0 1.6-6c.4-2.133.693-4.293.88-6.48h15.44zm-5.96 4.48h-4.48a58.897 58.897 0 0 1-1.32 6.92 27.41 27.41 0 0 1-2.36 6.08h8.16v-13zm32.722 6.4c0 3.627-.96 6.427-2.88 8.4-1.893 1.973-4.48 2.96-7.76 2.96-2.027 0-3.84-.44-5.44-1.32-1.573-.88-2.813-2.16-3.72-3.84-.907-1.707-1.36-3.773-1.36-6.2 0-3.627.947-6.413 2.84-8.36 1.893-1.947 4.493-2.92 7.8-2.92 2.053 0 3.867.44 5.44 1.32 1.573.88 2.813 2.16 3.72 3.84.907 1.68 1.36 3.72 1.36 6.12zm-15.08 0c0 2.16.347 3.8 1.04 4.92.72 1.093 1.88 1.64 3.48 1.64 1.573 0 2.707-.547 3.4-1.64.72-1.12 1.08-2.76 1.08-4.92s-.36-3.773-1.08-4.84c-.693-1.093-1.84-1.64-3.44-1.64-1.573 0-2.72.547-3.44 1.64-.693 1.067-1.04 2.68-1.04 4.84zm28.676-1.16c0-1.627.12-3.24.36-4.84a19.16 19.16 0 0 1 1.24-4.56 12.3 12.3 0 0 1 2.52-3.8c1.094-1.12 2.467-1.987 4.12-2.6 1.68-.64 3.707-.96 6.08-.96.56 0 1.214.027 1.96.08.747.027 1.374.093 1.88.2v4.84c-.506-.107-1.066-.2-1.68-.28a13 13 0 0 0-1.76-.12c-2.373 0-4.213.373-5.52 1.12-1.28.747-2.186 1.8-2.72 3.16-.533 1.333-.84 2.88-.92 4.64h.24c.534-.933 1.294-1.72 2.28-2.36 1.014-.64 2.32-.96 3.92-.96 2.507 0 4.494.787 5.96 2.36 1.467 1.573 2.2 3.8 2.2 6.68 0 3.093-.88 5.52-2.64 7.28-1.733 1.76-4.093 2.64-7.08 2.64-1.946 0-3.706-.44-5.28-1.32-1.573-.907-2.826-2.28-3.76-4.12-.933-1.867-1.4-4.227-1.4-7.08zm10.32 7.68c1.174 0 2.134-.4 2.88-1.2.747-.827 1.12-2.093 1.12-3.8 0-1.387-.32-2.48-.96-3.28-.64-.8-1.613-1.2-2.92-1.2-.906 0-1.693.2-2.36.6a4.61 4.61 0 0 0-1.52 1.52c-.373.587-.56 1.2-.56 1.84 0 .88.16 1.747.48 2.6.32.853.8 1.56 1.44 2.12.667.533 1.467.8 2.4.8zm32.571-9.84c0 3.067-.333 5.693-1 7.88-.64 2.187-1.693 3.867-3.16 5.04s-3.413 1.76-5.84 1.76c-3.44 0-5.96-1.293-7.56-3.88-1.6-2.587-2.4-6.187-2.4-10.8 0-3.067.32-5.693.96-7.88.64-2.213 1.693-3.907 3.16-5.08s3.413-1.76 5.84-1.76c3.413 0 5.933 1.293 7.56 3.88 1.627 2.587 2.44 6.2 2.44 10.84zm-13.96 0c0 3.253.28 5.707.84 7.36.56 1.627 1.6 2.44 3.12 2.44 1.493 0 2.533-.813 3.12-2.44.587-1.627.88-4.08.88-7.36 0-3.253-.293-5.707-.88-7.36-.587-1.653-1.627-2.48-3.12-2.48-1.52 0-2.56.827-3.12 2.48s-.84 4.107-.84 7.36zm23.411-14.68c2.24 0 3.933.787 5.08 2.36 1.173 1.547 1.76 3.733 1.76 6.56 0 2.827-.547 5.04-1.64 6.64-1.094 1.573-2.827 2.36-5.2 2.36-2.214 0-3.894-.787-5.04-2.36-1.12-1.6-1.68-3.813-1.68-6.64 0-2.827.533-5.013 1.6-6.56 1.066-1.573 2.773-2.36 5.12-2.36zm20.28.4L208.623 98h-4.68l15.84-28.56h4.68zm-20.24 3.68c-1.227 0-1.84 1.627-1.84 4.88 0 3.28.613 4.92 1.84 4.92 1.253 0 1.88-1.64 1.88-4.92 0-3.253-.627-4.88-1.88-4.88zm19.96 7.32c2.24 0 3.933.787 5.08 2.36 1.173 1.547 1.76 3.733 1.76 6.56 0 2.827-.547 5.04-1.64 6.64-1.094 1.573-2.827 2.36-5.2 2.36-2.214 0-3.894-.787-5.04-2.36-1.12-1.6-1.68-3.813-1.68-6.64 0-2.827.533-5.013 1.6-6.56 1.066-1.573 2.773-2.36 5.12-2.36zm.04 4.08c-1.227 0-1.84 1.627-1.84 4.88 0 3.28.613 4.92 1.84 4.92 1.253 0 1.88-1.64 1.88-4.92 0-3.253-.627-4.88-1.88-4.88zM336.265 365v-12.852h7.632v1.422h-6.012v4.014h1.908c1.284 0 2.28.162 2.988.486.708.312 1.2.744 1.476 1.296.276.54.414 1.164.414 1.872 0 1.176-.354 2.1-1.062 2.772-.708.66-1.902.99-3.582.99h-3.762zm1.62-1.386h1.98c1.152 0 1.962-.192 2.43-.576.468-.396.702-.996.702-1.8 0-.828-.258-1.41-.774-1.746-.516-.336-1.392-.504-2.628-.504h-1.71v4.626zm12.964-8.442c.816 0 1.524.18 2.124.54.6.36 1.056.87 1.368 1.53.324.648.486 1.41.486 2.286v.954h-6.606c.024 1.092.3 1.926.828 2.502.54.564 1.29.846 2.25.846a7.25 7.25 0 0 0 1.62-.162c.48-.12.972-.288 1.476-.504v1.386a7.084 7.084 0 0 1-1.458.468c-.48.108-1.05.162-1.71.162-.924 0-1.734-.186-2.43-.558-.696-.372-1.242-.924-1.638-1.656-.384-.732-.576-1.638-.576-2.718 0-1.056.174-1.962.522-2.718.36-.756.858-1.338 1.494-1.746.648-.408 1.398-.612 2.25-.612zm-.018 1.296c-.756 0-1.356.246-1.8.738-.432.48-.69 1.152-.774 2.016h4.914c-.012-.816-.204-1.476-.576-1.98-.372-.516-.96-.774-1.764-.774zm8.99-1.296c1.104 0 1.98.222 2.628.666.66.444.99 1.068.99 1.872 0 .588-.168 1.056-.504 1.404-.324.336-.762.582-1.314.738v.072a4.42 4.42 0 0 1 1.062.45c.324.192.582.45.774.774.204.312.306.708.306 1.188 0 .804-.336 1.482-1.008 2.034-.66.54-1.698.81-3.114.81-.696 0-1.326-.054-1.89-.162-.564-.108-1.032-.264-1.404-.468v-1.422c.408.192.888.366 1.44.522a6.867 6.867 0 0 0 1.836.234c.72 0 1.326-.12 1.818-.36.504-.252.756-.678.756-1.278 0-1.08-.918-1.62-2.754-1.62h-1.296v-1.296h1.044c.828 0 1.488-.108 1.98-.324.504-.228.756-.612.756-1.152 0-.456-.192-.798-.576-1.026-.372-.228-.912-.342-1.62-.342-.528 0-.996.054-1.404.162a8.56 8.56 0 0 0-1.314.45l-.558-1.26c1.008-.444 2.13-.666 3.366-.666zM370.999 365v-12.852h9.648V365h-1.602v-11.43h-6.426V365h-1.62zm24.38-6.444c0 1.332-.228 2.496-.684 3.492a5.128 5.128 0 0 1-1.998 2.304c-.876.552-1.956.828-3.24.828-1.332 0-2.442-.276-3.33-.828-.876-.552-1.53-1.326-1.962-2.322-.432-.996-.648-2.16-.648-3.492 0-1.308.216-2.454.648-3.438.432-.996 1.086-1.77 1.962-2.322.888-.552 2.004-.828 3.348-.828 1.284 0 2.364.276 3.24.828.876.54 1.536 1.308 1.98 2.304.456.984.684 2.142.684 3.474zm-10.152 0c0 1.62.342 2.898 1.026 3.834.684.924 1.752 1.386 3.204 1.386 1.452 0 2.514-.462 3.186-1.386.684-.936 1.026-2.214 1.026-3.834s-.336-2.886-1.008-3.798c-.672-.924-1.734-1.386-3.186-1.386-1.464 0-2.538.462-3.222 1.386-.684.912-1.026 2.178-1.026 3.798zM490.143 365h-1.62v-5.994h-6.588V365h-1.62v-12.852h1.62v5.436h6.588v-5.436h1.62V365zm6.952-9.81c1.176 0 2.046.258 2.61.774.564.516.846 1.338.846 2.466V365h-1.152l-.306-1.368h-.072c-.42.528-.864.918-1.332 1.17-.468.252-1.104.378-1.908.378-.876 0-1.602-.228-2.178-.684-.576-.468-.864-1.194-.864-2.178 0-.96.378-1.698 1.134-2.214.756-.528 1.92-.816 3.492-.864l1.638-.054v-.576c0-.804-.174-1.362-.522-1.674-.348-.312-.84-.468-1.476-.468-.504 0-.984.078-1.44.234a9.445 9.445 0 0 0-1.278.504l-.486-1.188c.42-.228.918-.42 1.494-.576a6.396 6.396 0 0 1 1.8-.252zm1.89 5.094l-1.422.054c-1.2.048-2.034.24-2.502.576-.456.336-.684.81-.684 1.422 0 .54.162.936.486 1.188.336.252.762.378 1.278.378.804 0 1.476-.222 2.016-.666.552-.456.828-1.152.828-2.088v-.864zm8.718-1.08c0-2.112.318-3.756.954-4.932.636-1.176 1.662-1.92 3.078-2.232.78-.168 1.542-.318 2.286-.45s1.44-.252 2.088-.36l.27 1.386c-.42.072-.894.15-1.422.234-.528.084-1.05.174-1.566.27-.516.096-.96.18-1.332.252a2.95 2.95 0 0 0-1.854 1.224c-.456.648-.714 1.644-.774 2.988h.108c.168-.228.396-.462.684-.702.3-.24.654-.444 1.062-.612.42-.168.894-.252 1.422-.252 1.248 0 2.19.402 2.826 1.206.636.804.954 1.848.954 3.132 0 1.08-.186 1.98-.558 2.7a3.74 3.74 0 0 1-1.566 1.602c-.66.348-1.422.522-2.286.522-1.332 0-2.394-.51-3.186-1.53-.792-1.02-1.188-2.502-1.188-4.446zm4.5 4.662c.78 0 1.41-.252 1.89-.756s.72-1.368.72-2.592c0-.984-.186-1.758-.558-2.322-.36-.576-.96-.864-1.8-.864-.54 0-1.026.12-1.458.36-.42.228-.78.492-1.08.792-.288.3-.486.552-.594.756 0 .588.042 1.158.126 1.71a5.57 5.57 0 0 0 .432 1.494c.216.432.51.78.882 1.044.384.252.864.378 1.44.378zm10.433-8.676c1.176 0 2.046.258 2.61.774.564.516.846 1.338.846 2.466V365h-1.152l-.306-1.368h-.072c-.42.528-.864.918-1.332 1.17-.468.252-1.104.378-1.908.378-.876 0-1.602-.228-2.178-.684-.576-.468-.864-1.194-.864-2.178 0-.96.378-1.698 1.134-2.214.756-.528 1.92-.816 3.492-.864l1.638-.054v-.576c0-.804-.174-1.362-.522-1.674-.348-.312-.84-.468-1.476-.468-.504 0-.984.078-1.44.234a9.445 9.445 0 0 0-1.278.504l-.486-1.188c.42-.228.918-.42 1.494-.576a6.396 6.396 0 0 1 1.8-.252zm1.89 5.094l-1.422.054c-1.2.048-2.034.24-2.502.576-.456.336-.684.81-.684 1.422 0 .54.162.936.486 1.188.336.252.762.378 1.278.378.804 0 1.476-.222 2.016-.666.552-.456.828-1.152.828-2.088v-.864zm7.084-5.112c1.104 0 1.98.222 2.628.666.66.444.99 1.068.99 1.872 0 .588-.168 1.056-.504 1.404-.324.336-.762.582-1.314.738v.072a4.42 4.42 0 0 1 1.062.45c.324.192.582.45.774.774.204.312.306.708.306 1.188 0 .804-.336 1.482-1.008 2.034-.66.54-1.698.81-3.114.81-.696 0-1.326-.054-1.89-.162-.564-.108-1.032-.264-1.404-.468v-1.422c.408.192.888.366 1.44.522a6.867 6.867 0 0 0 1.836.234c.72 0 1.326-.12 1.818-.36.504-.252.756-.678.756-1.278 0-1.08-.918-1.62-2.754-1.62h-1.296v-1.296h1.044c.828 0 1.488-.108 1.98-.324.504-.228.756-.612.756-1.152 0-.456-.192-.798-.576-1.026-.372-.228-.912-.342-1.62-.342-.528 0-.996.054-1.404.162a8.56 8.56 0 0 0-1.314.45l-.558-1.26c1.008-.444 2.13-.666 3.366-.666zm10.012 0c.816 0 1.524.18 2.124.54.6.36 1.056.87 1.368 1.53.324.648.486 1.41.486 2.286v.954h-6.606c.024 1.092.3 1.926.828 2.502.54.564 1.29.846 2.25.846a7.25 7.25 0 0 0 1.62-.162c.48-.12.972-.288 1.476-.504v1.386a7.084 7.084 0 0 1-1.458.468c-.48.108-1.05.162-1.71.162-.924 0-1.734-.186-2.43-.558-.696-.372-1.242-.924-1.638-1.656-.384-.732-.576-1.638-.576-2.718 0-1.056.174-1.962.522-2.718.36-.756.858-1.338 1.494-1.746.648-.408 1.398-.612 2.25-.612zm-.018 1.296c-.756 0-1.356.246-1.8.738-.432.48-.69 1.152-.774 2.016h4.914c-.012-.816-.204-1.476-.576-1.98-.372-.516-.96-.774-1.764-.774zM552.948 365v-12.852h9.648V365h-1.602v-11.43h-6.426V365h-1.62zm24.38-6.444c0 1.332-.228 2.496-.684 3.492a5.128 5.128 0 0 1-1.998 2.304c-.876.552-1.956.828-3.24.828-1.332 0-2.442-.276-3.33-.828-.876-.552-1.53-1.326-1.962-2.322-.432-.996-.648-2.16-.648-3.492 0-1.308.216-2.454.648-3.438.432-.996 1.086-1.77 1.962-2.322.888-.552 2.004-.828 3.348-.828 1.284 0 2.364.276 3.24.828.876.54 1.536 1.308 1.98 2.304.456.984.684 2.142.684 3.474zm-10.152 0c0 1.62.342 2.898 1.026 3.834.684.924 1.752 1.386 3.204 1.386 1.452 0 2.514-.462 3.186-1.386.684-.936 1.026-2.214 1.026-3.834s-.336-2.886-1.008-3.798c-.672-.924-1.734-1.386-3.186-1.386-1.464 0-2.538.462-3.222 1.386-.684.912-1.026 2.178-1.026 3.798z" fill="#000"/><path stroke="#000" stroke-dasharray="5 2" d="M0 37.5h594m-594 86h594"/><path fill="#EEE" d="M300 123h131v212H300zm163 0h131v212H463z"/><path fill="#3278BE" d="M463 37h131v86H463z"/><circle cx="528.5" cy="36.5" r="36.5" fill="#0EA4DF"/><circle cx="365.5" cy="122.5" r="36.5" fill="#0EA4DF"/><path d="M352.678 132H341.7v-2.31l3.938-3.982a73.836 73.836 0 0 0 1.914-2.046c.484-.557.836-1.056 1.056-1.496.22-.455.33-.939.33-1.452 0-.631-.176-1.1-.528-1.408-.337-.308-.799-.462-1.386-.462-.601 0-1.188.139-1.76.418-.572.279-1.173.675-1.804 1.188l-1.804-2.134c.44-.381.917-.741 1.43-1.078a6.508 6.508 0 0 1 1.76-.836c.675-.22 1.482-.33 2.42-.33 1.027 0 1.907.191 2.64.572.748.367 1.32.873 1.716 1.518.411.631.616 1.349.616 2.156a5.33 5.33 0 0 1-.528 2.376c-.337.719-.836 1.43-1.496 2.134a39.646 39.646 0 0 1-2.354 2.332l-2.024 1.892v.154h6.842V132zm12.502-7.854c0 1.687-.183 3.131-.55 4.334-.352 1.203-.931 2.127-1.738 2.772-.807.645-1.877.968-3.212.968-1.892 0-3.278-.711-4.158-2.134-.88-1.423-1.32-3.403-1.32-5.94 0-1.687.176-3.131.528-4.334.352-1.217.931-2.149 1.738-2.794.807-.645 1.877-.968 3.212-.968 1.877 0 3.263.711 4.158 2.134.895 1.423 1.342 3.41 1.342 5.962zm-7.678 0c0 1.789.154 3.139.462 4.048.308.895.88 1.342 1.716 1.342.821 0 1.393-.447 1.716-1.342.323-.895.484-2.244.484-4.048 0-1.789-.161-3.139-.484-4.048-.323-.909-.895-1.364-1.716-1.364-.836 0-1.408.455-1.716 1.364-.308.909-.462 2.259-.462 4.048zM375.086 132h-3.322v-9.086a63.176 63.176 0 0 1 .088-3.124 7.143 7.143 0 0 1-.484.484c-.235.22-.455.418-.66.594l-1.804 1.452-1.606-2.002 5.06-4.026h2.728V132zm9.796-15.906c.909 0 1.738.139 2.486.418.763.279 1.371.704 1.826 1.276.469.557.704 1.254.704 2.09 0 .953-.271 1.731-.814 2.332-.528.601-1.195 1.1-2.002 1.496.557.293 1.085.638 1.584 1.034.513.381.924.836 1.232 1.364.323.528.484 1.137.484 1.826 0 .865-.235 1.621-.704 2.266-.455.645-1.1 1.144-1.936 1.496-.821.352-1.775.528-2.86.528-1.76 0-3.124-.374-4.092-1.122-.953-.748-1.43-1.775-1.43-3.08 0-1.071.293-1.936.88-2.596a6.72 6.72 0 0 1 2.134-1.628 7.23 7.23 0 0 1-1.804-1.584c-.484-.631-.726-1.415-.726-2.354 0-.821.235-1.511.704-2.068.469-.572 1.085-.997 1.848-1.276a7.302 7.302 0 0 1 2.486-.418zm-.022 2.42c-.543 0-.997.147-1.364.44-.352.279-.528.667-.528 1.166 0 .543.191.983.572 1.32.381.337.829.631 1.342.88a5.941 5.941 0 0 0 1.32-.836c.381-.337.572-.792.572-1.364 0-.499-.183-.887-.55-1.166-.367-.293-.821-.44-1.364-.44zm-2.42 9.306c0 .572.198 1.041.594 1.408.411.367 1.012.55 1.804.55.821 0 1.437-.176 1.848-.528.411-.352.616-.821.616-1.408 0-.396-.117-.741-.352-1.034a3.624 3.624 0 0 0-.88-.814 14.255 14.255 0 0 0-1.056-.682l-.286-.154c-.689.323-1.247.697-1.672 1.122a2.135 2.135 0 0 0-.616 1.54zM515.678 46H504.7v-2.31l3.938-3.982a74.709 74.709 0 0 0 1.914-2.046c.484-.557.836-1.056 1.056-1.496.22-.455.33-.939.33-1.452 0-.63-.176-1.1-.528-1.408-.337-.308-.799-.462-1.386-.462-.601 0-1.188.14-1.76.418-.572.279-1.173.675-1.804 1.188l-1.804-2.134c.44-.381.917-.74 1.43-1.078.514-.352 1.1-.63 1.76-.836.675-.22 1.482-.33 2.42-.33 1.027 0 1.907.19 2.64.572.748.367 1.32.873 1.716 1.518.411.63.616 1.35.616 2.156a5.33 5.33 0 0 1-.528 2.376c-.337.719-.836 1.43-1.496 2.134a39.555 39.555 0 0 1-2.354 2.332l-2.024 1.892v.154h6.842V46zm12.502-7.854c0 1.687-.183 3.131-.55 4.334-.352 1.203-.931 2.127-1.738 2.772-.807.645-1.877.968-3.212.968-1.892 0-3.278-.711-4.158-2.134-.88-1.423-1.32-3.403-1.32-5.94 0-1.687.176-3.131.528-4.334.352-1.217.931-2.149 1.738-2.794.807-.645 1.877-.968 3.212-.968 1.877 0 3.263.711 4.158 2.134.895 1.423 1.342 3.41 1.342 5.962zm-7.678 0c0 1.79.154 3.139.462 4.048.308.895.88 1.342 1.716 1.342.821 0 1.393-.447 1.716-1.342.323-.895.484-2.244.484-4.048 0-1.79-.161-3.139-.484-4.048-.323-.91-.895-1.364-1.716-1.364-.836 0-1.408.455-1.716 1.364-.308.91-.462 2.259-.462 4.048zM538.086 46h-3.322v-9.086a63.198 63.198 0 0 1 .088-3.124c-.073.088-.235.25-.484.484-.235.22-.455.418-.66.594l-1.804 1.452-1.606-2.002 5.06-4.026h2.728V46zm5.946 0l5.896-12.914h-7.744v-2.794h11.264v2.09L547.508 46h-3.476z" fill="#fff"/><path d="M52.528 60.83h4.936v39.182h-4.936V60.831zm-9.83 1.419l-.683.212c-.855.27-1.861-.106-2.207-.823a1.285 1.285 0 0 1-.022-1.08c.177-.407.552-.724 1.028-.872l7.706-2.4.938 6.866c.053.35-.045.707-.277 1.002-.284.364-.74.6-1.25.648-.062.006-.13.01-.197.01-.872 0-1.612-.556-1.722-1.291l-.119-1.04c-8.907 12.333-29.416 25.55-30.306 26.12a1.933 1.933 0 0 1-1.046.296c-.515 0-1-.19-1.329-.524a1.328 1.328 0 0 1-.4-1.092c.046-.415.295-.796.683-1.044.209-.134 20.523-13.265 29.204-24.988zm5.84 7.284v30.478h-4.935V69.533h4.935zm-8.63 9.057v21.422H34.97V78.59h4.937zm-8.927 9.408v12.013h-4.936V87.998h4.936zm-9.437 4.707v7.306h-4.935v-7.306h4.935zM59 104.715H9v-3.662h50v3.662z" fill="#0EA4DF"/><path d="M270.672 74.868c0 1.844-.261 3.215-.783 4.113-.521.897-1.375 1.57-2.561 2.019 1.186.449 2.04 1.122 2.561 2.02.522.897.783 2.268.783 4.112v18.473c0 3.988 1.802 5.983 5.407 5.983H278V116h-2.632c-6.498 0-9.747-3.316-9.747-9.947V87.058c0-2.543-1.068-3.814-3.202-3.814H260v-4.488h2.419c2.134 0 3.202-1.271 3.202-3.814V55.947c0-6.632 3.249-9.947 9.747-9.947H278v4.412h-1.921c-3.605 0-5.407 1.995-5.407 5.983v18.473z" fill="#000"/></svg>