<svg width="73" height="73" fill="none" xmlns="http://www.w3.org/2000/svg"><path d="M54.941 36.38c-.465 0-.917.059-1.35.167a5.571 5.571 0 0 0-5.501-4.73c-.739 0-1.443.146-2.088.408a5.59 5.59 0 0 0-3.04-2.414l9.91-9.954a11.55 11.55 0 0 0 3.411-8.225 11.55 11.55 0 0 0-3.41-8.225A11.574 11.574 0 0 0 44.639 0c-3.11 0-6.034 1.21-8.234 3.407l-2.019 2.017-2.019-2.017A11.573 11.573 0 0 0 24.134 0c-3.11 0-6.035 1.21-8.234 3.407-4.54 4.535-4.54 11.915-.004 16.446l12.926 12.983v9.505l-.207-.2a4.937 4.937 0 0 0-3.404-1.404h-.052a4.97 4.97 0 0 0-4.007 2.037 4.955 4.955 0 0 0-.693 4.485l1.948 5.816a22.635 22.635 0 0 0 4.985 8.35l4.4 4.692V73H54.59v-6.668l5.915-10.437V41.939a5.568 5.568 0 0 0-5.565-5.559zM18.924 16.836a7.307 7.307 0 0 1-2.157-5.204c0-1.966.766-3.814 2.158-5.204a7.323 7.323 0 0 1 5.209-2.155c1.968 0 3.817.765 5.209 2.155l5.043 5.038 5.044-5.038a7.323 7.323 0 0 1 5.209-2.155c1.968 0 3.818.765 5.21 2.155a7.307 7.307 0 0 1 2.157 5.204 7.31 7.31 0 0 1-2.162 5.208l-9.893 9.936v-4.604a5.568 5.568 0 0 0-5.565-5.559 5.568 5.568 0 0 0-5.564 5.559v4.604l-9.898-9.94zm37.304 37.933l-5.915 10.437v3.521H36.069v-4.3l-5.554-5.923a18.392 18.392 0 0 1-4.051-6.785l-1.948-5.816a.664.664 0 0 1 .095-.614.665.665 0 0 1 .548-.28h.008c.175.003.34.07.466.193l3.19 3.101v2.555H33.1V22.172a1.288 1.288 0 0 1 2.574 0v25.354h4.277V35.095a1.288 1.288 0 0 1 2.574 0v11.539h4.278v-9.258a1.288 1.288 0 0 1 2.574 0v9.258h4.277v-4.695a1.288 1.288 0 0 1 2.574 0v12.83z" fill="#0EA4DF"/></svg>