<svg width="74" height="74" fill="none" xmlns="http://www.w3.org/2000/svg"><path d="M54.48 15.735l8.089-8.733a1.233 1.233 0 1 0-1.808-1.677l-8.88 9.587-8.617 8.616a1.233 1.233 0 0 0 0 1.744l.587.588-3.4 3.23a1.232 1.232 0 0 1-.849.337h-5.056c-.13.006-.26.018-.389.037l-4.105-4.74.684-.685a1.233 1.233 0 0 0 0-1.744l-8.617-8.609-7.647-8.349a1.233 1.233 0 1 0-1.82 1.665l6.867 7.5L.361 33.658a1.233 1.233 0 0 0 0 1.744l8.633 8.634a1.234 1.234 0 0 0 1.744 0l.362-.362 5.462 5.462-.83.787a3.992 3.992 0 0 0 0 5.832 4.316 4.316 0 0 0 2.98 1.17h.017a3.992 3.992 0 0 0 1.263 2.876 4.317 4.317 0 0 0 2.978 1.17h.018c.01 1.09.466 2.13 1.262 2.874a4.317 4.317 0 0 0 2.979 1.17h.017a3.993 3.993 0 0 0 1.263 2.876 4.38 4.38 0 0 0 5.957 0l1.06-1.006.997 1.02a4.283 4.283 0 0 0 2.96 1.155 4.427 4.427 0 0 0 4.422-4.104 4.369 4.369 0 0 0 3.007-1.268 3.993 3.993 0 0 0 1.263-2.886 4.492 4.492 0 0 0 3.083-1.242 3.993 3.993 0 0 0 1.262-2.868h.032a4.251 4.251 0 0 0 2.932-1.148 3.93 3.93 0 0 0 1.247-2.866 4.008 4.008 0 0 0-1.276-2.93l-.026-.026 6.302-5.984 1.53 1.53a1.233 1.233 0 0 0 1.745 0l8.633-8.633a1.233 1.233 0 0 0 0-1.743l-19.16-19.156zM2.977 34.529L21.23 16.276l6.89 6.89L9.865 41.419 2.977 34.53zM17.43 53.968a1.523 1.523 0 0 1 0-2.253l4.968-4.717a1.88 1.88 0 0 1 2.56 0 1.524 1.524 0 0 1 0 2.254L19.99 53.97a1.881 1.881 0 0 1-2.559-.002zm4.259 4.044a1.524 1.524 0 0 1 0-2.254l4.967-4.716a1.88 1.88 0 0 1 2.56 0 1.523 1.523 0 0 1 0 2.253L24.25 58.01a1.907 1.907 0 0 1-2.56 0zm4.258 4.043a1.524 1.524 0 0 1 0-2.255l4.968-4.717c.722-.67 1.84-.67 2.562 0a1.527 1.527 0 0 1 0 2.255l-4.97 4.717a1.88 1.88 0 0 1-2.56 0zm6.82 4.048a1.879 1.879 0 0 1-2.561 0 1.522 1.522 0 0 1 0-2.253l4.969-4.72a1.904 1.904 0 0 1 2.559 0 1.524 1.524 0 0 1 0 2.255l-4.968 4.718zm8.057-.03a1.904 1.904 0 0 1-2.57.074l-.94-.96 2.118-2.012a4.17 4.17 0 0 0 .477-.552l1.175 1.174a1.2 1.2 0 0 1 .386.904 1.958 1.958 0 0 1-.648 1.366l.002.005zm12.93-14.535c.321.293.505.706.508 1.14a1.479 1.479 0 0 1-.474 1.082 1.85 1.85 0 0 1-2.526-.033l-3.805-3.612a1.235 1.235 0 0 0-1.702 1.79l3.804 3.612c.313.291.491.699.493 1.126a1.64 1.64 0 0 1-.587 1.211 1.877 1.877 0 0 1-2.56 0l-3.486-3.309a1.233 1.233 0 1 0-1.698 1.79l3.486 3.309c.312.291.49.7.493 1.127-.014.469-.227.91-.587 1.211a1.618 1.618 0 0 1-2.324.042l-1.233-1.233-.91-.91a3.976 3.976 0 0 0-1.234-2.543 4.313 4.313 0 0 0-2.995-1.169 3.99 3.99 0 0 0-1.262-2.875 4.315 4.315 0 0 0-2.997-1.169 3.99 3.99 0 0 0-1.263-2.874A4.318 4.318 0 0 0 27.9 48.08a3.99 3.99 0 0 0-1.263-2.875 4.38 4.38 0 0 0-5.957 0l-2.343 2.23-5.493-5.507L28.3 26.472l3.556 4.11-4.667 4.433a3.186 3.186 0 0 0 0 4.646 3.46 3.46 0 0 0 4.594.106l5.443-3.207a1.233 1.233 0 0 1 1.49.184l10.88 10.73c.06.13.144.249.246.35l2.933 2.786.844.831.016-.016.12.112zm-.106-3.532L40.452 34.983a3.7 3.7 0 0 0-4.477-.552l-5.55 3.268-.223.169a.986.986 0 0 1-1.313 0 .723.723 0 0 1 0-1.07l4.81-4.564c.228-.219.532-.34.848-.34h5.057a3.69 3.69 0 0 0 2.548-1.015l3.427-3.256L59.9 42.071l-6.253 5.934zm10.484-5.353L45.878 24.399l6.891-6.89 18.252 18.254-6.89 6.889z" fill="#0EA4DF"/><path d="M12.333 34.53a2.467 2.467 0 1 1-4.934 0 2.467 2.467 0 0 1 4.934 0zm54.265 1.233a2.466 2.466 0 1 1-4.933 0 2.466 2.466 0 0 1 4.933 0z" fill="#0EA4DF"/></svg>