<svg width="73" height="73" fill="none" xmlns="http://www.w3.org/2000/svg"><g clip-path="url(#clip0)"><path d="M57.595 50.604a8.555 8.555 0 0 0 .144-1.557c0-3.472-2.08-6.466-5.06-7.805-.966-5.138-5.184-9.14-10.428-9.781 3.888-3.272 6.363-8.172 6.363-13.639C48.614 7.995 40.62 0 30.792 0 20.965 0 12.97 7.995 12.97 17.822c0 5.467 2.475 10.367 6.363 13.639-5.987.732-10.64 5.844-10.64 12.025V73h44.199v-8.952l2.342 2.342 9.073-9.074-6.712-6.712zM17.247 17.822c0-7.468 6.076-13.545 13.545-13.545s13.545 6.077 13.545 13.545c0 7.469-6.076 13.545-13.545 13.545s-13.545-6.076-13.545-13.545zm31.367 50.9H12.97V43.487c0-4.324 3.518-7.841 7.841-7.841h19.962c3.293 0 6.117 2.041 7.276 4.925-4.182.557-7.42 4.145-7.42 8.477a8.5 8.5 0 0 0 .146 1.557l-6.713 6.712 9.074 9.074 5.478-5.479v7.812zM46.357 57.12l-3.222 3.222-3.024-3.025 2.64-2.64a8.58 8.58 0 0 0 3.606 2.443zm-1.45-8.072a4.282 4.282 0 0 1 4.278-4.277 4.282 4.282 0 0 1 4.277 4.277 4.282 4.282 0 0 1-4.277 4.277 4.282 4.282 0 0 1-4.278-4.277zm7.105 8.072a8.581 8.581 0 0 0 3.606-2.443l2.64 2.64-3.024 3.025-3.222-3.222z" fill="#0EA4DF"/></g><defs><clipPath id="clip0"><path fill="#fff" d="M0 0h73v73H0z"/></clipPath></defs></svg>