<svg width="71" height="71" fill="none" xmlns="http://www.w3.org/2000/svg"><path d="M42.845 15.88c3.283 2.058 5.585 5.541 6.004 9.584 1.34.626 2.825.986 4.4.986 5.752 0 10.413-4.662 10.413-10.412 0-5.752-4.661-10.413-10.412-10.413-5.697.001-10.318 4.58-10.405 10.255zM36.024 37.2c5.751 0 10.413-4.662 10.413-10.413 0-5.75-4.663-10.412-10.413-10.412s-10.415 4.663-10.415 10.413S30.273 37.2 36.024 37.2zm4.417.71h-8.836c-7.352 0-13.333 5.982-13.333 13.333V62.05l.028.17.744.232c7.016 2.192 13.111 2.923 18.128 2.923 9.799 0 15.479-2.793 15.829-2.972l.695-.351h.075V51.243c.002-7.351-5.979-13.333-13.33-13.333zm17.227-10.75h-8.767a12.833 12.833 0 0 1-3.96 8.939c6.534 1.943 11.315 8.003 11.315 15.16v3.33c8.657-.317 13.645-2.77 13.974-2.935l.696-.353H71V40.49c0-7.35-5.98-13.33-13.332-13.33zm-39.916-.709a10.34 10.34 0 0 0 5.538-1.607 12.887 12.887 0 0 1 4.844-8.22c.01-.194.03-.387.03-.584 0-5.751-4.663-10.413-10.412-10.413C12 5.627 7.34 10.29 7.34 16.04c0 5.749 4.66 10.411 10.413 10.411zm9.352 9.648a12.84 12.84 0 0 1-3.958-8.89c-.326-.023-.647-.049-.979-.049h-8.835C5.981 27.16 0 33.141 0 40.492v10.807l.027.167.745.234c5.628 1.758 10.651 2.567 15.014 2.823v-3.264c.002-7.157 4.781-13.215 11.318-15.16z" fill="#fff"/></svg>