<svg width="459" height="415" fill="none" xmlns="http://www.w3.org/2000/svg"><path fill="#EEE" d="M1 174h131v157H1z"/><circle cx="66.5" cy="173.5" r="36.5" fill="#0EA4DF"/><path d="M56.1 180h-8.982v-1.89l3.222-3.258c.648-.672 1.17-1.23 1.566-1.674.396-.456.684-.864.864-1.224.18-.372.27-.768.27-1.188 0-.516-.144-.9-.432-1.152-.276-.252-.654-.378-1.134-.378-.492 0-.972.114-1.44.342-.468.228-.96.552-1.476.972l-1.476-1.746c.36-.312.75-.606 1.17-.882.42-.288.9-.516 1.44-.684.552-.18 1.212-.27 1.98-.27.84 0 1.56.156 2.16.468.612.3 1.08.714 1.404 1.242a3.16 3.16 0 0 1 .504 1.764 4.36 4.36 0 0 1-.432 1.944c-.276.588-.684 1.17-1.224 1.746a32.437 32.437 0 0 1-1.926 1.908l-1.656 1.548v.126H56.1V180zm10.23-6.426c0 1.38-.15 2.562-.45 3.546-.289.984-.763 1.74-1.423 2.268-.66.528-1.536.792-2.628.792-1.548 0-2.682-.582-3.402-1.746-.72-1.164-1.08-2.784-1.08-4.86 0-1.38.144-2.562.432-3.546.288-.996.762-1.758 1.422-2.286.66-.528 1.536-.792 2.628-.792 1.536 0 2.67.582 3.402 1.746.732 1.164 1.098 2.79 1.098 4.878zm-6.283 0c0 1.464.126 2.568.378 3.312.252.732.72 1.098 1.404 1.098.672 0 1.14-.366 1.404-1.098.264-.732.396-1.836.396-3.312 0-1.464-.132-2.568-.396-3.312-.264-.744-.732-1.116-1.404-1.116-.684 0-1.152.372-1.404 1.116-.252.744-.378 1.848-.378 3.312zM74.434 180h-2.718v-7.434a53.284 53.284 0 0 1 .072-2.556c-.06.072-.192.204-.396.396-.192.18-.372.342-.54.486l-1.476 1.188-1.314-1.638 4.14-3.294h2.232V180zm3.497-5.454c0-.732.054-1.458.162-2.178a8.608 8.608 0 0 1 .558-2.052 5.525 5.525 0 0 1 1.134-1.71c.492-.504 1.11-.894 1.854-1.17.756-.288 1.668-.432 2.736-.432.252 0 .546.012.882.036.336.012.618.042.846.09v2.178a9.91 9.91 0 0 0-.756-.126 5.855 5.855 0 0 0-.792-.054c-1.068 0-1.896.168-2.484.504a2.78 2.78 0 0 0-1.224 1.422c-.24.6-.378 1.296-.414 2.088h.108c.24-.42.582-.774 1.026-1.062.456-.288 1.044-.432 1.764-.432 1.128 0 2.022.354 2.682 1.062.66.708.99 1.71.99 3.006 0 1.392-.396 2.484-1.188 3.276-.78.792-1.842 1.188-3.186 1.188-.876 0-1.668-.198-2.376-.594-.708-.408-1.272-1.026-1.692-1.854-.42-.84-.63-1.902-.63-3.186zm4.644 3.456c.528 0 .96-.18 1.296-.54.336-.372.504-.942.504-1.71 0-.624-.144-1.116-.432-1.476-.288-.36-.726-.54-1.314-.54-.408 0-.762.09-1.062.27a2.07 2.07 0 0 0-.684.684 1.52 1.52 0 0 0-.252.828c0 .396.072.786.216 1.17.144.384.36.702.648.954.3.24.66.36 1.08.36z" fill="#fff"/><path fill="#EEE" d="M164 119h131v212H164z"/><circle cx="229.5" cy="118.5" r="36.5" fill="#0EA4DF"/><path d="M219.1 125h-8.982v-1.89l3.222-3.258c.648-.672 1.17-1.23 1.566-1.674.396-.456.684-.864.864-1.224.18-.372.27-.768.27-1.188 0-.516-.144-.9-.432-1.152-.276-.252-.654-.378-1.134-.378-.492 0-.972.114-1.44.342-.468.228-.96.552-1.476.972l-1.476-1.746c.36-.312.75-.606 1.17-.882.42-.288.9-.516 1.44-.684.552-.18 1.212-.27 1.98-.27.84 0 1.56.156 2.16.468.612.3 1.08.714 1.404 1.242a3.16 3.16 0 0 1 .504 1.764 4.36 4.36 0 0 1-.432 1.944c-.276.588-.684 1.17-1.224 1.746a32.437 32.437 0 0 1-1.926 1.908l-1.656 1.548v.126h5.598V125zm10.229-6.426c0 1.38-.15 2.562-.45 3.546-.288.984-.762 1.74-1.422 2.268-.66.528-1.536.792-2.628.792-1.548 0-2.682-.582-3.402-1.746-.72-1.164-1.08-2.784-1.08-4.86 0-1.38.144-2.562.432-3.546.288-.996.762-1.758 1.422-2.286.66-.528 1.536-.792 2.628-.792 1.536 0 2.67.582 3.402 1.746.732 1.164 1.098 2.79 1.098 4.878zm-6.282 0c0 1.464.126 2.568.378 3.312.252.732.72 1.098 1.404 1.098.672 0 1.14-.366 1.404-1.098.264-.732.396-1.836.396-3.312 0-1.464-.132-2.568-.396-3.312-.264-.744-.732-1.116-1.404-1.116-.684 0-1.152.372-1.404 1.116-.252.744-.378 1.848-.378 3.312zM237.434 125h-2.718v-7.434a53.284 53.284 0 0 1 .072-2.556c-.06.072-.192.204-.396.396-.192.18-.372.342-.54.486l-1.476 1.188-1.314-1.638 4.14-3.294h2.232V125zm4.865 0l4.824-10.566h-6.336v-2.286h9.216v1.71L245.143 125h-2.844z" fill="#fff"/><path fill="#EEE" d="M327 37h131v294H327z"/><circle cx="392.5" cy="36.5" r="36.5" fill="#0EA4DF"/><path d="M382.1 43h-8.982v-1.89l3.222-3.258c.648-.672 1.17-1.23 1.566-1.674.396-.456.684-.864.864-1.224.18-.372.27-.768.27-1.188 0-.516-.144-.9-.432-1.152-.276-.252-.654-.378-1.134-.378-.492 0-.972.114-1.44.342-.468.228-.96.552-1.476.972l-1.476-1.746c.36-.312.75-.606 1.17-.882.42-.288.9-.516 1.44-.684.552-.18 1.212-.27 1.98-.27.84 0 1.56.156 2.16.468.612.3 1.08.714 1.404 1.242a3.16 3.16 0 0 1 .504 1.764 4.36 4.36 0 0 1-.432 1.944c-.276.588-.684 1.17-1.224 1.746a32.437 32.437 0 0 1-1.926 1.908l-1.656 1.548v.126h5.598V43zm10.229-6.426c0 1.38-.15 2.562-.45 3.546-.288.984-.762 1.74-1.422 2.268-.66.528-1.536.792-2.628.792-1.548 0-2.682-.582-3.402-1.746-.72-1.164-1.08-2.784-1.08-4.86 0-1.38.144-2.562.432-3.546.288-.996.762-1.758 1.422-2.286.66-.528 1.536-.792 2.628-.792 1.536 0 2.67.582 3.402 1.746.732 1.164 1.098 2.79 1.098 4.878zm-6.282 0c0 1.464.126 2.568.378 3.312.252.732.72 1.098 1.404 1.098.672 0 1.14-.366 1.404-1.098.264-.732.396-1.836.396-3.312 0-1.464-.132-2.568-.396-3.312-.264-.744-.732-1.116-1.404-1.116-.684 0-1.152.372-1.404 1.116-.252.744-.378 1.848-.378 3.312zM400.434 43h-2.718v-7.434a53.284 53.284 0 0 1 .072-2.556c-.06.072-.192.204-.396.396-.192.18-.372.342-.54.486l-1.476 1.188-1.314-1.638 4.14-3.294h2.232V43zm8.015-13.014c.744 0 1.422.114 2.034.342.624.228 1.122.576 1.494 1.044.384.456.576 1.026.576 1.71 0 .78-.222 1.416-.666 1.908-.432.492-.978.9-1.638 1.224.456.24.888.522 1.296.846.42.312.756.684 1.008 1.116.264.432.396.93.396 1.494 0 .708-.192 1.326-.576 1.854-.372.528-.9.936-1.584 1.224-.672.288-1.452.432-2.34.432-1.44 0-2.556-.306-3.348-.918-.78-.612-1.17-1.452-1.17-2.52 0-.876.24-1.584.72-2.124a5.496 5.496 0 0 1 1.746-1.332 5.911 5.911 0 0 1-1.476-1.296c-.396-.516-.594-1.158-.594-1.926 0-.672.192-1.236.576-1.692.384-.468.888-.816 1.512-1.044a5.982 5.982 0 0 1 2.034-.342zm-.018 1.98c-.444 0-.816.12-1.116.36-.288.228-.432.546-.432.954 0 .444.156.804.468 1.08a4.83 4.83 0 0 0 1.098.72c.408-.192.768-.42 1.08-.684.312-.276.468-.648.468-1.116 0-.408-.15-.726-.45-.954-.3-.24-.672-.36-1.116-.36zm-1.98 7.614c0 .468.162.852.486 1.152.336.3.828.45 1.476.45.672 0 1.176-.144 1.512-.432.336-.288.504-.672.504-1.152 0-.324-.096-.606-.288-.846a2.954 2.954 0 0 0-.72-.666c-.288-.204-.576-.39-.864-.558l-.234-.126c-.564.264-1.02.57-1.368.918a1.748 1.748 0 0 0-.504 1.26zM20.219 353.116c1.308 0 2.352.33 3.132.99.792.66 1.188 1.59 1.188 2.79 0 1.332-.426 2.382-1.278 3.15-.84.756-2.016 1.134-3.528 1.134-.672 0-1.296-.06-1.872-.18-.576-.12-1.062-.294-1.458-.522v-1.494c.432.264.954.474 1.566.63a7.93 7.93 0 0 0 1.782.216c.948 0 1.71-.222 2.286-.666.588-.456.882-1.158.882-2.106 0-.84-.258-1.482-.774-1.926-.516-.456-1.332-.684-2.448-.684-.336 0-.72.03-1.152.09-.432.06-.78.12-1.044.18l-.792-.504.486-6.066h6.444v1.44h-5.094l-.306 3.726c.204-.036.48-.078.828-.126a8.468 8.468 0 0 1 1.152-.072zm19.71-1.764V361h-1.584v-8.298H33.36V361h-1.584v-9.648h8.154zm4.572 0v5.886c0 .156-.005.378-.017.666-.013.276-.03.564-.055.864-.012.288-.023.51-.035.666l5.166-8.082h1.944V361h-1.476v-6.444l.035-.918c.012-.312.024-.546.036-.702L44.97 361h-1.962v-9.648h1.495zM61.919 361h-1.602v-8.334h-2.844c-.156 2.028-.372 3.666-.648 4.914-.276 1.236-.648 2.136-1.116 2.7-.456.564-1.026.846-1.71.846-.156 0-.312-.012-.468-.036a.989.989 0 0 1-.36-.09v-1.188c.072.024.15.042.234.054.084.012.168.018.252.018.648 0 1.164-.69 1.548-2.07.396-1.38.696-3.534.9-6.462h5.814V361zm11.45-4.842c0 1.596-.408 2.832-1.224 3.708-.804.876-1.896 1.314-3.276 1.314-.852 0-1.614-.192-2.286-.576-.66-.396-1.182-.966-1.566-1.71-.384-.756-.576-1.668-.576-2.736 0-1.596.396-2.826 1.188-3.69.804-.864 1.902-1.296 3.294-1.296.864 0 1.632.198 2.304.594.672.384 1.194.948 1.566 1.692.384.732.576 1.632.576 2.7zm-7.29 0c0 1.14.222 2.046.666 2.718.456.66 1.176.99 2.16.99.972 0 1.686-.33 2.142-.99.456-.672.684-1.578.684-2.718s-.228-2.034-.684-2.682c-.456-.648-1.176-.972-2.16-.972-.984 0-1.698.324-2.142.972-.444.648-.666 1.542-.666 2.682zm16.285-3.474h-3.15V361h-1.566v-8.316h-3.114v-1.332h7.83v1.332zm3.484-1.332v4.014h5.238v-4.014h1.584V361h-1.584v-4.302h-5.238V361h-1.584v-9.648h1.584zM95.724 361v-9.648h1.584v3.96h2.502c1.248 0 2.172.228 2.772.684.6.456.9 1.14.9 2.052 0 .9-.294 1.62-.882 2.16-.588.528-1.542.792-2.862.792h-4.014zm9.36 0v-9.648h1.584V361h-1.584zm-7.776-1.278h2.286c.684 0 1.242-.114 1.674-.342.432-.24.648-.654.648-1.242s-.204-.984-.612-1.188c-.396-.216-.96-.324-1.692-.324h-2.304v3.096zm14.712-3.654l-3.33-4.716h1.8l2.484 3.636 2.466-3.636h1.782l-3.33 4.716 3.51 4.932h-1.8l-2.628-3.852L110.31 361h-1.782l3.492-4.932zm-79.447 20.284V386h-1.584v-8.298h-4.986V386h-1.584v-9.648h8.154zm7.668-.18c1.188 0 2.142.414 2.862 1.242.732.828 1.098 2.076 1.098 3.744 0 1.644-.366 2.892-1.098 3.744-.72.852-1.68 1.278-2.88 1.278-.744 0-1.362-.138-1.854-.414-.48-.276-.858-.606-1.134-.99h-.108c.012.204.03.462.054.774.036.312.054.582.054.81v3.96h-1.584v-13.968h1.296l.216 1.314h.072c.288-.42.666-.774 1.134-1.062.468-.288 1.092-.432 1.872-.432zm-.288 1.332c-.984 0-1.68.276-2.088.828-.408.552-.618 1.392-.63 2.52v.306c0 1.188.192 2.106.576 2.754.396.636 1.122.954 2.178.954.576 0 1.056-.156 1.44-.468.384-.324.666-.768.846-1.332.192-.564.288-1.206.288-1.926 0-1.104-.216-1.986-.648-2.646-.42-.66-1.074-.99-1.962-.99zm15.16 3.654c0 1.596-.408 2.832-1.224 3.708-.804.876-1.896 1.314-3.276 1.314-.852 0-1.614-.192-2.286-.576-.66-.396-1.182-.966-1.566-1.71-.384-.756-.576-1.668-.576-2.736 0-1.596.396-2.826 1.188-3.69.804-.864 1.902-1.296 3.294-1.296.864 0 1.632.198 2.304.594.672.384 1.194.948 1.566 1.692.384.732.576 1.632.576 2.7zm-7.29 0c0 1.14.222 2.046.666 2.718.456.66 1.176.99 2.16.99.972 0 1.686-.33 2.142-.99.456-.672.684-1.578.684-2.718s-.228-2.034-.684-2.682c-.456-.648-1.176-.972-2.16-.972-.984 0-1.698.324-2.142.972-.444.648-.666 1.542-.666 2.682zm13.527-4.986c.816 0 1.524.18 2.124.54.6.36 1.056.87 1.368 1.53.324.648.486 1.41.486 2.286v.954h-6.606c.024 1.092.3 1.926.828 2.502.54.564 1.29.846 2.25.846a7.25 7.25 0 0 0 1.62-.162c.48-.12.972-.288 1.476-.504v1.386a7.084 7.084 0 0 1-1.458.468c-.48.108-1.05.162-1.71.162-.924 0-1.734-.186-2.43-.558-.696-.372-1.242-.924-1.638-1.656-.384-.732-.576-1.638-.576-2.718 0-1.056.174-1.962.522-2.718.36-.756.858-1.338 1.494-1.746.648-.408 1.398-.612 2.25-.612zm-.018 1.296c-.756 0-1.356.246-1.8.738-.432.48-.69 1.152-.774 2.016h4.914c-.012-.816-.204-1.476-.576-1.98-.372-.516-.96-.774-1.764-.774zm12.158-1.116h1.728l-4.122 4.644L75.56 386h-1.836l-4.356-4.896V386h-1.584v-9.648h1.584v4.68l4.122-4.68zm10.481 1.332h-3.15V386h-1.566v-8.316h-3.114v-1.332h7.83v1.332zm10.113 3.474c0 1.596-.408 2.832-1.224 3.708-.804.876-1.896 1.314-3.276 1.314-.852 0-1.614-.192-2.286-.576-.66-.396-1.182-.966-1.566-1.71-.384-.756-.576-1.668-.576-2.736 0-1.596.396-2.826 1.188-3.69.804-.864 1.902-1.296 3.294-1.296.864 0 1.632.198 2.304.594.672.384 1.194.948 1.566 1.692.384.732.576 1.632.576 2.7zm-7.29 0c0 1.14.222 2.046.666 2.718.456.66 1.176.99 2.16.99.972 0 1.686-.33 2.142-.99.456-.672.684-1.578.684-2.718s-.228-2.034-.684-2.682c-.456-.648-1.176-.972-2.16-.972-.984 0-1.698.324-2.142.972-.444.648-.666 1.542-.666 2.682zm17.558-2.376c0 .6-.18 1.068-.54 1.404-.36.336-.822.564-1.386.684v.072c.588.084 1.104.3 1.548.648.456.336.684.864.684 1.584 0 .816-.306 1.494-.918 2.034-.6.528-1.596.792-2.988.792h-4.157v-9.648h4.139c.684 0 1.296.078 1.836.234.552.144.984.396 1.296.756.324.348.486.828.486 1.44zm-1.602.198c0-.456-.168-.786-.504-.99-.324-.216-.858-.324-1.602-.324h-2.466v2.646h2.178c1.596 0 2.394-.444 2.394-1.332zm.27 4.194c0-.552-.21-.948-.63-1.188-.42-.24-1.038-.36-1.854-.36h-2.358v3.096h2.394c.792 0 1.398-.114 1.818-.342.42-.24.63-.642.63-1.206zM178.064 361l-4.23-11.268h-.072c.036.372.066.876.09 1.512.024.624.036 1.278.036 1.962V361h-1.494v-12.852h2.394l3.96 10.53h.072l4.032-10.53h2.376V361h-1.602v-7.902c0-.624.012-1.242.036-1.854l.09-1.494h-.072L179.396 361h-1.332zm14.099-9.81c1.176 0 2.046.258 2.61.774.564.516.846 1.338.846 2.466V361h-1.152l-.306-1.368h-.072c-.42.528-.864.918-1.332 1.17-.468.252-1.104.378-1.908.378-.876 0-1.602-.228-2.178-.684-.576-.468-.864-1.194-.864-2.178 0-.96.378-1.698 1.134-2.214.756-.528 1.92-.816 3.492-.864l1.638-.054v-.576c0-.804-.174-1.362-.522-1.674-.348-.312-.84-.468-1.476-.468-.504 0-.984.078-1.44.234a9.445 9.445 0 0 0-1.278.504l-.486-1.188c.42-.228.918-.42 1.494-.576a6.396 6.396 0 0 1 1.8-.252zm1.89 5.094l-1.422.054c-1.2.048-2.034.24-2.502.576-.456.336-.684.81-.684 1.422 0 .54.162.936.486 1.188.336.252.762.378 1.278.378.804 0 1.476-.222 2.016-.666.552-.456.828-1.152.828-2.088v-.864zm8.415 4.896c-.864 0-1.626-.174-2.286-.522-.66-.348-1.182-.888-1.566-1.62-.372-.732-.558-1.668-.558-2.808 0-1.188.192-2.154.576-2.898.396-.744.936-1.29 1.62-1.638.684-.348 1.458-.522 2.322-.522.48 0 .948.054 1.404.162.468.096.846.216 1.134.36l-.486 1.314a9.366 9.366 0 0 0-1.008-.306 4.465 4.465 0 0 0-1.08-.144c-1.896 0-2.844 1.218-2.844 3.654 0 1.164.228 2.058.684 2.682.468.612 1.158.918 2.07.918.516 0 .978-.054 1.386-.162a6.75 6.75 0 0 0 1.116-.396v1.404a4.25 4.25 0 0 1-1.08.378c-.384.096-.852.144-1.404.144zm17.865-9.828V361h-13.086v-9.648h1.584v8.316h4.158v-8.316h1.584v8.316h4.176v-8.316h1.584zm9.746 1.332h-3.15V361h-1.566v-8.316h-3.114v-1.332h7.83v1.332zm5.554-1.494c1.176 0 2.046.258 2.61.774.564.516.846 1.338.846 2.466V361h-1.152l-.306-1.368h-.072c-.42.528-.864.918-1.332 1.17-.468.252-1.104.378-1.908.378-.876 0-1.602-.228-2.178-.684-.576-.468-.864-1.194-.864-2.178 0-.96.378-1.698 1.134-2.214.756-.528 1.92-.816 3.492-.864l1.638-.054v-.576c0-.804-.174-1.362-.522-1.674-.348-.312-.84-.468-1.476-.468-.504 0-.984.078-1.44.234a9.445 9.445 0 0 0-1.278.504l-.486-1.188c.42-.228.918-.42 1.494-.576a6.396 6.396 0 0 1 1.8-.252zm1.89 5.094l-1.422.054c-1.2.048-2.034.24-2.502.576-.456.336-.684.81-.684 1.422 0 .54.162.936.486 1.188.336.252.762.378 1.278.378.804 0 1.476-.222 2.016-.666.552-.456.828-1.152.828-2.088v-.864zm4.042-1.08c0-2.112.318-3.756.954-4.932.636-1.176 1.662-1.92 3.078-2.232.78-.168 1.542-.318 2.286-.45s1.44-.252 2.088-.36l.27 1.386c-.42.072-.894.15-1.422.234-.528.084-1.05.174-1.566.27-.516.096-.96.18-1.332.252a2.95 2.95 0 0 0-1.854 1.224c-.456.648-.714 1.644-.774 2.988h.108c.168-.228.396-.462.684-.702.3-.24.654-.444 1.062-.612.42-.168.894-.252 1.422-.252 1.248 0 2.19.402 2.826 1.206.636.804.954 1.848.954 3.132 0 1.08-.186 1.98-.558 2.7a3.74 3.74 0 0 1-1.566 1.602c-.66.348-1.422.522-2.286.522-1.332 0-2.394-.51-3.186-1.53-.792-1.02-1.188-2.502-1.188-4.446zm4.5 4.662c.78 0 1.41-.252 1.89-.756s.72-1.368.72-2.592c0-.984-.186-1.758-.558-2.322-.36-.576-.96-.864-1.8-.864-.54 0-1.026.12-1.458.36-.42.228-.78.492-1.08.792-.288.3-.486.552-.594.756 0 .588.042 1.158.126 1.71a5.57 5.57 0 0 0 .432 1.494c.216.432.51.78.882 1.044.384.252.864.378 1.44.378zm8.363-8.514v4.014h5.238v-4.014h1.584V361h-1.584v-4.302h-5.238V361h-1.584v-9.648h1.584zm9.877 9.648v-9.648h1.584v3.96h2.502c1.248 0 2.172.228 2.772.684.6.456.9 1.14.9 2.052 0 .9-.294 1.62-.882 2.16-.588.528-1.542.792-2.862.792h-4.014zm9.36 0v-9.648h1.584V361h-1.584zm-7.776-1.278h2.286c.684 0 1.242-.114 1.674-.342.432-.24.648-.654.648-1.242s-.204-.984-.612-1.188c-.396-.216-.96-.324-1.692-.324h-2.304v3.096zm13.92-8.37v5.886a23.828 23.828 0 0 1-.072 1.53c-.012.288-.024.51-.036.666l5.166-8.082h1.944V361h-1.476v-6.444l.036-.918c.012-.312.024-.546.036-.702l-5.13 8.064h-1.962v-9.648h1.494zm6.318-3.996c-.084.9-.39 1.584-.918 2.052-.516.456-1.344.684-2.484.684-1.176 0-2.01-.228-2.502-.684-.48-.456-.75-1.14-.81-2.052h1.476c.06.648.228 1.086.504 1.314.276.216.732.324 1.368.324.552 0 .984-.114 1.296-.342.324-.24.516-.672.576-1.296h1.494zm-96.912 33.802c0 1.596-.408 2.832-1.224 3.708-.804.876-1.896 1.314-3.276 1.314-.852 0-1.614-.192-2.286-.576-.66-.396-1.182-.966-1.566-1.71-.384-.756-.576-1.668-.576-2.736 0-1.596.396-2.826 1.188-3.69.804-.864 1.902-1.296 3.294-1.296.864 0 1.632.198 2.304.594.672.384 1.194.948 1.566 1.692.384.732.576 1.632.576 2.7zm-7.29 0c0 1.14.222 2.046.666 2.718.456.66 1.176.99 2.16.99.972 0 1.686-.33 2.142-.99.456-.672.684-1.578.684-2.718s-.228-2.034-.684-2.682c-.456-.648-1.176-.972-2.16-.972-.984 0-1.698.324-2.142.972-.444.648-.666 1.542-.666 2.682zm11.735-.09l-3.33-4.716h1.8l2.484 3.636 2.466-3.636h1.782l-3.33 4.716 3.51 4.932h-1.8l-2.628-3.852L191.95 386h-1.782l3.492-4.932zm14.999-2.286c0 .6-.18 1.068-.54 1.404-.36.336-.822.564-1.386.684v.072c.588.084 1.104.3 1.548.648.456.336.684.864.684 1.584 0 .816-.306 1.494-.918 2.034-.6.528-1.596.792-2.988.792h-4.158v-9.648h4.14c.684 0 1.296.078 1.836.234.552.144.984.396 1.296.756.324.348.486.828.486 1.44zm-1.602.198c0-.456-.168-.786-.504-.99-.324-.216-.858-.324-1.602-.324h-2.466v2.646h2.178c1.596 0 2.394-.444 2.394-1.332zm.27 4.194c0-.552-.21-.948-.63-1.188-.42-.24-1.038-.36-1.854-.36h-2.358v3.096h2.394c.792 0 1.398-.114 1.818-.342.42-.24.63-.642.63-1.206zm7.599-6.984c1.176 0 2.046.258 2.61.774.564.516.846 1.338.846 2.466V386h-1.152l-.306-1.368h-.072c-.42.528-.864.918-1.332 1.17-.468.252-1.104.378-1.908.378-.876 0-1.602-.228-2.178-.684-.576-.468-.864-1.194-.864-2.178 0-.96.378-1.698 1.134-2.214.756-.528 1.92-.816 3.492-.864l1.638-.054v-.576c0-.804-.174-1.362-.522-1.674-.348-.312-.84-.468-1.476-.468-.504 0-.984.078-1.44.234a9.445 9.445 0 0 0-1.278.504l-.486-1.188c.42-.228.918-.42 1.494-.576a6.396 6.396 0 0 1 1.8-.252zm1.89 5.094l-1.422.054c-1.2.048-2.034.24-2.502.576-.456.336-.684.81-.684 1.422 0 .54.162.936.486 1.188.336.252.762.378 1.278.378.804 0 1.476-.222 2.016-.666.552-.456.828-1.152.828-2.088v-.864zm11.206-3.6h-3.15V386h-1.566v-8.316h-3.114v-1.332h7.83v1.332zm13.74-1.332v8.316h1.404v4.68h-1.53V386h-6.714v3.348h-1.512v-4.68h.774c.828-1.14 1.446-2.436 1.854-3.888.42-1.464.636-2.94.648-4.428h5.076zm-1.53 1.242h-2.142c-.06.816-.192 1.662-.396 2.538a15.33 15.33 0 0 1-.774 2.484c-.312.792-.678 1.476-1.098 2.052h4.41v-7.074zm13.213 3.564c0 1.596-.408 2.832-1.224 3.708-.804.876-1.896 1.314-3.276 1.314-.852 0-1.614-.192-2.286-.576-.66-.396-1.182-.966-1.566-1.71-.384-.756-.576-1.668-.576-2.736 0-1.596.396-2.826 1.188-3.69.804-.864 1.902-1.296 3.294-1.296.864 0 1.632.198 2.304.594.672.384 1.194.948 1.566 1.692.384.732.576 1.632.576 2.7zm-7.29 0c0 1.14.222 2.046.666 2.718.456.66 1.176.99 2.16.99.972 0 1.686-.33 2.142-.99.456-.672.684-1.578.684-2.718s-.228-2.034-.684-2.682c-.456-.648-1.176-.972-2.16-.972-.984 0-1.698.324-2.142.972-.444.648-.666 1.542-.666 2.682zM268.462 386h-8.496v-1.314l3.366-3.402a44.729 44.729 0 0 0 1.62-1.728c.456-.504.798-.996 1.026-1.476.228-.48.342-1.014.342-1.602 0-.708-.21-1.242-.63-1.602-.42-.372-.966-.558-1.638-.558-.636 0-1.188.108-1.656.324a7.416 7.416 0 0 0-1.44.9l-.846-1.062a7.332 7.332 0 0 1 1.728-1.062c.66-.3 1.398-.45 2.214-.45 1.2 0 2.148.306 2.844.918.696.612 1.044 1.446 1.044 2.502 0 .672-.138 1.302-.414 1.89a7.827 7.827 0 0 1-1.152 1.746 26.028 26.028 0 0 1-1.728 1.818l-2.682 2.646v.072h6.498V386zm10.354-6.444c0 1.392-.144 2.58-.432 3.564-.288.984-.75 1.74-1.386 2.268-.624.528-1.446.792-2.466.792-1.452 0-2.526-.582-3.222-1.746-.684-1.176-1.026-2.802-1.026-4.878 0-1.392.138-2.58.414-3.564.288-.984.744-1.734 1.368-2.25.624-.528 1.446-.792 2.466-.792 1.44 0 2.514.582 3.222 1.746.708 1.152 1.062 2.772 1.062 4.86zm-6.948 0c0 1.764.198 3.084.594 3.96.408.876 1.098 1.314 2.07 1.314.96 0 1.644-.432 2.052-1.296.42-.876.63-2.202.63-3.978 0-1.752-.21-3.066-.63-3.942-.408-.876-1.092-1.314-2.052-1.314-.972 0-1.662.438-2.07 1.314-.396.876-.594 2.19-.594 3.942zm-82.18 20.796h1.728l-4.122 4.644 4.464 5.004h-1.836l-4.356-4.896V410h-1.584v-9.648h1.584v4.68l4.122-4.68zm11.858 4.806c0 1.596-.408 2.832-1.224 3.708-.804.876-1.896 1.314-3.276 1.314-.852 0-1.614-.192-2.286-.576-.66-.396-1.182-.966-1.566-1.71-.384-.756-.576-1.668-.576-2.736 0-1.596.396-2.826 1.188-3.69.804-.864 1.902-1.296 3.294-1.296.864 0 1.632.198 2.304.594.672.384 1.194.948 1.566 1.692.384.732.576 1.632.576 2.7zm-7.29 0c0 1.14.222 2.046.666 2.718.456.66 1.176.99 2.16.99.972 0 1.686-.33 2.142-.99.456-.672.684-1.578.684-2.718s-.228-2.034-.684-2.682c-.456-.648-1.176-.972-2.16-.972-.984 0-1.698.324-2.142.972-.444.648-.666 1.542-.666 2.682zm20.15-4.806V410h-1.422v-6.156c0-.252.006-.51.018-.774l.072-.828h-.054L209.87 410h-1.332l-3.06-7.758h-.054c.036.54.054 1.092.054 1.656V410h-1.422v-9.648h2.106l3.042 7.758 3.096-7.758h2.106zm11.234 0V410h-1.584v-8.298h-4.986V410h-1.584v-9.648h8.154zm6.732-.162c1.176 0 2.046.258 2.61.774.564.516.846 1.338.846 2.466V410h-1.152l-.306-1.368h-.072c-.42.528-.864.918-1.332 1.17-.468.252-1.104.378-1.908.378-.876 0-1.602-.228-2.178-.684-.576-.468-.864-1.194-.864-2.178 0-.96.378-1.698 1.134-2.214.756-.528 1.92-.816 3.492-.864l1.638-.054v-.576c0-.804-.174-1.362-.522-1.674-.348-.312-.84-.468-1.476-.468-.504 0-.984.078-1.44.234a9.445 9.445 0 0 0-1.278.504l-.486-1.188c.42-.228.918-.42 1.494-.576a6.396 6.396 0 0 1 1.8-.252zm1.89 5.094l-1.422.054c-1.2.048-2.034.24-2.502.576-.456.336-.684.81-.684 1.422 0 .54.162.936.486 1.188.336.252.762.378 1.278.378.804 0 1.476-.222 2.016-.666.552-.456.828-1.152.828-2.088v-.864zm6.13-4.932v4.014h5.238v-4.014h1.584V410h-1.584v-4.302h-5.238V410h-1.584v-9.648h1.584zm11.371 0v5.886a23.828 23.828 0 0 1-.072 1.53c-.012.288-.024.51-.036.666l5.166-8.082h1.944V410h-1.476v-6.444l.036-.918c.012-.312.024-.546.036-.702l-5.13 8.064h-1.962v-9.648h1.494zm11.567 0v5.886a23.828 23.828 0 0 1-.072 1.53c-.012.288-.024.51-.036.666l5.166-8.082h1.944V410h-1.476v-6.444l.036-.918c.012-.312.024-.546.036-.702l-5.13 8.064h-1.962v-9.648h1.494zm6.318-3.996c-.084.9-.39 1.584-.918 2.052-.516.456-1.344.684-2.484.684-1.176 0-2.01-.228-2.502-.684-.48-.456-.75-1.14-.81-2.052h1.476c.06.648.228 1.086.504 1.314.276.216.732.324 1.368.324.552 0 .984-.114 1.296-.342.324-.24.516-.672.576-1.296h1.494zM345.282 361h-1.944l-5.814-6.516V361h-1.62v-12.852h1.62v6.228l5.67-6.228h1.836l-5.58 6.246 5.832 6.606zm9.921-4.842c0 1.596-.408 2.832-1.224 3.708-.804.876-1.896 1.314-3.276 1.314-.852 0-1.614-.192-2.286-.576-.66-.396-1.182-.966-1.566-1.71-.384-.756-.576-1.668-.576-2.736 0-1.596.396-2.826 1.188-3.69.804-.864 1.902-1.296 3.294-1.296.864 0 1.632.198 2.304.594.672.384 1.194.948 1.566 1.692.384.732.576 1.632.576 2.7zm-7.29 0c0 1.14.222 2.046.666 2.718.456.66 1.176.99 2.16.99.972 0 1.686-.33 2.142-.99.456-.672.684-1.578.684-2.718s-.228-2.034-.684-2.682c-.456-.648-1.176-.972-2.16-.972-.984 0-1.698.324-2.142.972-.444.648-.666 1.542-.666 2.682zm20.151-4.806V361h-1.422v-6.156c0-.252.006-.51.018-.774l.072-.828h-.054l-3.15 7.758h-1.332l-3.06-7.758h-.054c.036.54.054 1.092.054 1.656V361h-1.422v-9.648h2.106l3.042 7.758 3.096-7.758h2.106zm11.233 0V361h-1.584v-8.298h-4.986V361h-1.584v-9.648h8.154zM389.72 361h-1.602v-8.334h-2.844c-.156 2.028-.372 3.666-.648 4.914-.276 1.236-.648 2.136-1.116 2.7-.456.564-1.026.846-1.71.846-.156 0-.312-.012-.468-.036a.989.989 0 0 1-.36-.09v-1.188c.072.024.15.042.234.054.084.012.168.018.252.018.648 0 1.164-.69 1.548-2.07.396-1.38.696-3.534.9-6.462h5.814V361zm6.788-9.828c.816 0 1.524.18 2.124.54.6.36 1.056.87 1.368 1.53.324.648.486 1.41.486 2.286v.954h-6.606c.024 1.092.3 1.926.828 2.502.54.564 1.29.846 2.25.846a7.25 7.25 0 0 0 1.62-.162c.48-.12.972-.288 1.476-.504v1.386a7.084 7.084 0 0 1-1.458.468c-.48.108-1.05.162-1.71.162-.924 0-1.734-.186-2.43-.558-.696-.372-1.242-.924-1.638-1.656-.384-.732-.576-1.638-.576-2.718 0-1.056.174-1.962.522-2.718.36-.756.858-1.338 1.494-1.746.648-.408 1.398-.612 2.25-.612zm-.018 1.296c-.756 0-1.356.246-1.8.738-.432.48-.69 1.152-.774 2.016h4.914c-.012-.816-.204-1.476-.576-1.98-.372-.516-.96-.774-1.764-.774zm12.158-1.116h1.728l-4.122 4.644 4.464 5.004h-1.836l-4.356-4.896V361h-1.584v-9.648h1.584v4.68l4.122-4.68zm7.34 9.828c-.864 0-1.626-.174-2.286-.522-.66-.348-1.182-.888-1.566-1.62-.372-.732-.558-1.668-.558-2.808 0-1.188.192-2.154.576-2.898.396-.744.936-1.29 1.62-1.638.684-.348 1.458-.522 2.322-.522.48 0 .948.054 1.404.162.468.096.846.216 1.134.36l-.486 1.314a9.366 9.366 0 0 0-1.008-.306 4.465 4.465 0 0 0-1.08-.144c-1.896 0-2.844 1.218-2.844 3.654 0 1.164.228 2.058.684 2.682.468.612 1.158.918 2.07.918.516 0 .978-.054 1.386-.162a6.75 6.75 0 0 0 1.116-.396v1.404a4.25 4.25 0 0 1-1.08.378c-.384.096-.852.144-1.404.144zm6.362-9.828v4.014h5.238v-4.014h1.584V361h-1.584v-4.302h-5.238V361h-1.584v-9.648h1.584zm13.531-.162c1.176 0 2.046.258 2.61.774.564.516.846 1.338.846 2.466V361h-1.152l-.306-1.368h-.072c-.42.528-.864.918-1.332 1.17-.468.252-1.104.378-1.908.378-.876 0-1.602-.228-2.178-.684-.576-.468-.864-1.194-.864-2.178 0-.96.378-1.698 1.134-2.214.756-.528 1.92-.816 3.492-.864l1.638-.054v-.576c0-.804-.174-1.362-.522-1.674-.348-.312-.84-.468-1.476-.468-.504 0-.984.078-1.44.234a9.445 9.445 0 0 0-1.278.504l-.486-1.188c.42-.228.918-.42 1.494-.576a6.396 6.396 0 0 1 1.8-.252zm1.89 5.094l-1.422.054c-1.2.048-2.034.24-2.502.576-.456.336-.684.81-.684 1.422 0 .54.162.936.486 1.188.336.252.762.378 1.278.378.804 0 1.476-.222 2.016-.666.552-.456.828-1.152.828-2.088v-.864zm5.14 4.716h-1.836l2.754-4.05a3.505 3.505 0 0 1-1.08-.45 2.487 2.487 0 0 1-.846-.882c-.216-.372-.324-.846-.324-1.422 0-.912.312-1.614.936-2.106.624-.492 1.452-.738 2.484-.738h4.32V361h-1.584v-3.834h-2.34L442.911 361zm.198-6.786c0 .564.204.978.612 1.242.42.264 1.002.396 1.746.396h2.268v-3.186h-2.574c-.732 0-1.26.15-1.584.45a1.429 1.429 0 0 0-.468 1.098zm-90.78 26.944c0 1.596-.408 2.832-1.224 3.708-.804.876-1.896 1.314-3.276 1.314-.852 0-1.614-.192-2.286-.576-.66-.396-1.182-.966-1.566-1.71-.384-.756-.576-1.668-.576-2.736 0-1.596.396-2.826 1.188-3.69.804-.864 1.902-1.296 3.294-1.296.864 0 1.632.198 2.304.594.672.384 1.194.948 1.566 1.692.384.732.576 1.632.576 2.7zm-7.29 0c0 1.14.222 2.046.666 2.718.456.66 1.176.99 2.16.99.972 0 1.686-.33 2.142-.99.456-.672.684-1.578.684-2.718s-.228-2.034-.684-2.682c-.456-.648-1.176-.972-2.16-.972-.984 0-1.698.324-2.142.972-.444.648-.666 1.542-.666 2.682zm16.285-3.474h-3.15V386h-1.566v-8.316h-3.114v-1.332h7.83v1.332zm6.49-1.512c1.188 0 2.142.414 2.862 1.242.732.828 1.098 2.076 1.098 3.744 0 1.644-.366 2.892-1.098 3.744-.72.852-1.68 1.278-2.88 1.278-.744 0-1.362-.138-1.854-.414-.48-.276-.858-.606-1.134-.99h-.108c.012.204.03.462.054.774.036.312.054.582.054.81v3.96h-1.584v-13.968h1.296l.216 1.314h.072c.288-.42.666-.774 1.134-1.062.468-.288 1.092-.432 1.872-.432zm-.288 1.332c-.984 0-1.68.276-2.088.828-.408.552-.618 1.392-.63 2.52v.306c0 1.188.192 2.106.576 2.754.396.636 1.122.954 2.178.954.576 0 1.056-.156 1.44-.468.384-.324.666-.768.846-1.332.192-.564.288-1.206.288-1.926 0-1.104-.216-1.986-.648-2.646-.42-.66-1.074-.99-1.962-.99zm10.427-1.314c1.176 0 2.046.258 2.61.774.564.516.846 1.338.846 2.466V386h-1.152l-.306-1.368h-.072c-.42.528-.864.918-1.332 1.17-.468.252-1.104.378-1.908.378-.876 0-1.602-.228-2.178-.684-.576-.468-.864-1.194-.864-2.178 0-.96.378-1.698 1.134-2.214.756-.528 1.92-.816 3.492-.864l1.638-.054v-.576c0-.804-.174-1.362-.522-1.674-.348-.312-.84-.468-1.476-.468-.504 0-.984.078-1.44.234a9.445 9.445 0 0 0-1.278.504l-.486-1.188c.42-.228.918-.42 1.494-.576a6.396 6.396 0 0 1 1.8-.252zm1.89 5.094l-1.422.054c-1.2.048-2.034.24-2.502.576-.456.336-.684.81-.684 1.422 0 .54.162.936.486 1.188.336.252.762.378 1.278.378.804 0 1.476-.222 2.016-.666.552-.456.828-1.152.828-2.088v-.864zm8.415 4.896c-.864 0-1.626-.174-2.286-.522-.66-.348-1.182-.888-1.566-1.62-.372-.732-.558-1.668-.558-2.808 0-1.188.192-2.154.576-2.898.396-.744.936-1.29 1.62-1.638.684-.348 1.458-.522 2.322-.522.48 0 .948.054 1.404.162.468.096.846.216 1.134.36l-.486 1.314a9.366 9.366 0 0 0-1.008-.306 4.465 4.465 0 0 0-1.08-.144c-1.896 0-2.844 1.218-2.844 3.654 0 1.164.228 2.058.684 2.682.468.612 1.158.918 2.07.918.516 0 .978-.054 1.386-.162a6.75 6.75 0 0 0 1.116-.396v1.404a4.25 4.25 0 0 1-1.08.378c-.384.096-.852.144-1.404.144zm12.123-.18h-1.602v-8.334h-2.844c-.156 2.028-.372 3.666-.648 4.914-.276 1.236-.648 2.136-1.116 2.7-.456.564-1.026.846-1.71.846-.156 0-.312-.012-.468-.036a.989.989 0 0 1-.36-.09v-1.188c.072.024.15.042.234.054.084.012.168.018.252.018.648 0 1.164-.69 1.548-2.07.396-1.38.696-3.534.9-6.462h5.814V386zm6.788-9.828c.816 0 1.524.18 2.124.54.6.36 1.056.87 1.368 1.53.324.648.486 1.41.486 2.286v.954h-6.606c.024 1.092.3 1.926.828 2.502.54.564 1.29.846 2.25.846a7.25 7.25 0 0 0 1.62-.162c.48-.12.972-.288 1.476-.504v1.386a7.084 7.084 0 0 1-1.458.468c-.48.108-1.05.162-1.71.162-.924 0-1.734-.186-2.43-.558-.696-.372-1.242-.924-1.638-1.656-.384-.732-.576-1.638-.576-2.718 0-1.056.174-1.962.522-2.718.36-.756.858-1.338 1.494-1.746.648-.408 1.398-.612 2.25-.612zm-.018 1.296c-.756 0-1.356.246-1.8.738-.432.48-.69 1.152-.774 2.016h4.914c-.012-.816-.204-1.476-.576-1.98-.372-.516-.96-.774-1.764-.774zm14.21 1.314c0 .6-.18 1.068-.54 1.404-.36.336-.822.564-1.386.684v.072c.588.084 1.104.3 1.548.648.456.336.684.864.684 1.584 0 .816-.306 1.494-.918 2.034-.6.528-1.596.792-2.988.792h-4.158v-9.648h4.14c.684 0 1.296.078 1.836.234.552.144.984.396 1.296.756.324.348.486.828.486 1.44zm-1.602.198c0-.456-.168-.786-.504-.99-.324-.216-.858-.324-1.602-.324h-2.466v2.646h2.178c1.596 0 2.394-.444 2.394-1.332zm.27 4.194c0-.552-.21-.948-.63-1.188-.42-.24-1.038-.36-1.854-.36h-2.358v3.096h2.394c.792 0 1.398-.114 1.818-.342.42-.24.63-.642.63-1.206zm7.599-6.984c1.176 0 2.046.258 2.61.774.564.516.846 1.338.846 2.466V386h-1.152l-.306-1.368h-.072c-.42.528-.864.918-1.332 1.17-.468.252-1.104.378-1.908.378-.876 0-1.602-.228-2.178-.684-.576-.468-.864-1.194-.864-2.178 0-.96.378-1.698 1.134-2.214.756-.528 1.92-.816 3.492-.864l1.638-.054v-.576c0-.804-.174-1.362-.522-1.674-.348-.312-.84-.468-1.476-.468-.504 0-.984.078-1.44.234a9.445 9.445 0 0 0-1.278.504l-.486-1.188c.42-.228.918-.42 1.494-.576a6.396 6.396 0 0 1 1.8-.252zm1.89 5.094l-1.422.054c-1.2.048-2.034.24-2.502.576-.456.336-.684.81-.684 1.422 0 .54.162.936.486 1.188.336.252.762.378 1.278.378.804 0 1.476-.222 2.016-.666.552-.456.828-1.152.828-2.088v-.864zm5.14 4.716h-1.836l2.754-4.05a3.505 3.505 0 0 1-1.08-.45 2.487 2.487 0 0 1-.846-.882c-.216-.372-.324-.846-.324-1.422 0-.912.312-1.614.936-2.106.624-.492 1.452-.738 2.484-.738h4.32V386h-1.584v-3.834h-2.34L434.658 386zm.198-6.786c0 .564.204.978.612 1.242.42.264 1.002.396 1.746.396h2.268v-3.186h-2.574c-.732 0-1.26.15-1.584.45a1.429 1.429 0 0 0-.468 1.098zm-84.334 21.138V410h-1.584v-8.298h-4.986V410h-1.584v-9.648h8.154zM360.944 410h-1.602v-8.334h-2.844c-.156 2.028-.372 3.666-.648 4.914-.276 1.236-.648 2.136-1.116 2.7-.456.564-1.026.846-1.71.846-.156 0-.312-.012-.468-.036a.989.989 0 0 1-.36-.09v-1.188c.072.024.15.042.234.054.084.012.168.018.252.018.648 0 1.164-.69 1.548-2.07.396-1.38.696-3.534.9-6.462h5.814V410zm6.717-9.81c1.176 0 2.046.258 2.61.774.564.516.846 1.338.846 2.466V410h-1.152l-.306-1.368h-.072c-.42.528-.864.918-1.332 1.17-.468.252-1.104.378-1.908.378-.876 0-1.602-.228-2.178-.684-.576-.468-.864-1.194-.864-2.178 0-.96.378-1.698 1.134-2.214.756-.528 1.92-.816 3.492-.864l1.638-.054v-.576c0-.804-.174-1.362-.522-1.674-.348-.312-.84-.468-1.476-.468-.504 0-.984.078-1.44.234a9.445 9.445 0 0 0-1.278.504l-.486-1.188c.42-.228.918-.42 1.494-.576a6.396 6.396 0 0 1 1.8-.252zm1.89 5.094l-1.422.054c-1.2.048-2.034.24-2.502.576-.456.336-.684.81-.684 1.422 0 .54.162.936.486 1.188.336.252.762.378 1.278.378.804 0 1.476-.222 2.016-.666.552-.456.828-1.152.828-2.088v-.864zm11.205-3.6h-3.15V410h-1.566v-8.316h-3.114v-1.332h7.83v1.332zm7.485-5.364v3.888c.948.096 1.782.354 2.502.774.72.408 1.278.966 1.674 1.674.396.708.594 1.548.594 2.52 0 1.464-.426 2.628-1.278 3.492-.84.864-2.004 1.356-3.492 1.476v4.176h-1.548v-4.176c-.948-.084-1.782-.33-2.502-.738a4.443 4.443 0 0 1-1.674-1.692c-.396-.708-.594-1.554-.594-2.538 0-1.464.42-2.628 1.26-3.492.852-.864 2.04-1.356 3.564-1.476v-3.888h1.494zm-1.494 5.202c-1.104.108-1.908.474-2.412 1.098-.504.612-.756 1.464-.756 2.556s.252 1.95.756 2.574c.504.624 1.308.99 2.412 1.098v-7.326zm1.494.018v7.308c1.08-.12 1.872-.492 2.376-1.116.504-.624.756-1.476.756-2.556s-.258-1.926-.774-2.538c-.504-.612-1.29-.978-2.358-1.098zm15.671 3.618c0 1.596-.408 2.832-1.224 3.708-.804.876-1.896 1.314-3.276 1.314-.852 0-1.614-.192-2.286-.576-.66-.396-1.182-.966-1.566-1.71-.384-.756-.576-1.668-.576-2.736 0-1.596.396-2.826 1.188-3.69.804-.864 1.902-1.296 3.294-1.296.864 0 1.632.198 2.304.594.672.384 1.194.948 1.566 1.692.384.732.576 1.632.576 2.7zm-7.29 0c0 1.14.222 2.046.666 2.718.456.66 1.176.99 2.16.99.972 0 1.686-.33 2.142-.99.456-.672.684-1.578.684-2.718s-.228-2.034-.684-2.682c-.456-.648-1.176-.972-2.16-.972-.984 0-1.698.324-2.142.972-.444.648-.666 1.542-.666 2.682zm14.391-4.986c1.188 0 2.142.414 2.862 1.242.732.828 1.098 2.076 1.098 3.744 0 1.644-.366 2.892-1.098 3.744-.72.852-1.68 1.278-2.88 1.278-.744 0-1.362-.138-1.854-.414-.48-.276-.858-.606-1.134-.99h-.108c.012.204.03.462.054.774.036.312.054.582.054.81v3.96h-1.584v-13.968h1.296l.216 1.314h.072c.288-.42.666-.774 1.134-1.062.468-.288 1.092-.432 1.872-.432zm-.288 1.332c-.984 0-1.68.276-2.088.828-.408.552-.618 1.392-.63 2.52v.306c0 1.188.192 2.106.576 2.754.396.636 1.122.954 2.178.954.576 0 1.056-.156 1.44-.468.384-.324.666-.768.846-1.332.192-.564.288-1.206.288-1.926 0-1.104-.216-1.986-.648-2.646-.42-.66-1.074-.99-1.962-.99zm17.122-1.152V410h-1.422v-6.156c0-.252.006-.51.018-.774l.072-.828h-.054l-3.15 7.758h-1.332l-3.06-7.758h-.054c.036.54.054 1.092.054 1.656V410h-1.422v-9.648h2.106l3.042 7.758 3.096-7.758h2.106zm6.733-.162c1.176 0 2.046.258 2.61.774.564.516.846 1.338.846 2.466V410h-1.152l-.306-1.368h-.072c-.42.528-.864.918-1.332 1.17-.468.252-1.104.378-1.908.378-.876 0-1.602-.228-2.178-.684-.576-.468-.864-1.194-.864-2.178 0-.96.378-1.698 1.134-2.214.756-.528 1.92-.816 3.492-.864l1.638-.054v-.576c0-.804-.174-1.362-.522-1.674-.348-.312-.84-.468-1.476-.468-.504 0-.984.078-1.44.234a9.445 9.445 0 0 0-1.278.504l-.486-1.188c.42-.228.918-.42 1.494-.576a6.396 6.396 0 0 1 1.8-.252zm1.89 5.094l-1.422.054c-1.2.048-2.034.24-2.502.576-.456.336-.684.81-.684 1.422 0 .54.162.936.486 1.188.336.252.762.378 1.278.378.804 0 1.476-.222 2.016-.666.552-.456.828-1.152.828-2.088v-.864z" fill="#fff"/><path d="M1 330l70.931-66.705h123.623l50.159-39.824 116.53-41.317 70.424-64.216L458 104" stroke="#0EA4DF" stroke-dasharray="5 2"/></svg>