<svg width="73" height="73" fill="none" xmlns="http://www.w3.org/2000/svg"><g clip-path="url(#clip0)" fill="#0EA4DF"><path d="M68.642 4.954L56.475.087a1.216 1.216 0 0 0-1.669 1.131v15.816h-7.3c-.672 0-1.216.545-1.216 1.217v14.6h-14.6c-.672 0-1.217.545-1.217 1.216v14.6H14.657c-.672 0-1.217.545-1.217 1.217v21.9a1.217 1.217 0 0 0 2.434 0V51.1H31.69c.672 0 1.217-.544 1.217-1.216v-14.6h14.6c.672 0 1.216-.544 1.216-1.217v-14.6h17.033v52.316a1.217 1.217 0 0 0 2.433 0V18.251c0-.672-.545-1.217-1.216-1.217H57.24V10.64l11.298-3.39a1.217 1.217 0 0 0 .104-2.296zM57.24 8.099V3.015l7.263 2.905-7.264 2.18zM4.924 66.917c-.672 0-1.217.545-1.217 1.216v3.65a1.217 1.217 0 0 0 2.433 0v-3.65c0-.671-.544-1.216-1.216-1.216z"/><path d="M23.173 41.367V25.551h17.034c.671 0 1.216-.545 1.216-1.217V12.672l1.573 1.572a1.216 1.216 0 0 0 1.72-1.72l-3.65-3.65c-.01-.01-.025-.014-.036-.024a1.207 1.207 0 0 0-.358-.244c-.01 0-.02 0-.032-.007a1.19 1.19 0 0 0-.386-.075c-.04 0-.077 0-.122.006-.105.006-.21.026-.31.06-.038.013-.076.024-.113.041-.136.058-.26.14-.365.243l-3.65 3.65a1.217 1.217 0 0 0 1.72 1.72l1.575-1.572v10.446H21.957c-.672 0-1.217.544-1.217 1.216v15.817H4.924c-.672 0-1.217.544-1.217 1.216v21.9a1.217 1.217 0 1 0 2.433 0V42.584h15.816c.673 0 1.217-.545 1.217-1.217zm6.083 12.167h-9.733a1.217 1.217 0 0 0 0 2.433h9.733a1.217 1.217 0 1 0 0-2.433zM46.29 37.717h-9.733a1.217 1.217 0 1 0 0 2.434h9.733a1.217 1.217 0 0 0 0-2.434zM62.106 21.9h-9.733a1.217 1.217 0 1 0 0 2.434h9.733a1.217 1.217 0 0 0 0-2.433z"/></g><defs><clipPath id="clip0"><path fill="#fff" d="M0 0h73v73H0z"/></clipPath></defs></svg>