<svg width="77" height="65" fill="none" xmlns="http://www.w3.org/2000/svg"><path d="M70.99 9.913H54.757V7.008A6.219 6.219 0 0 0 48.545.796h-20.09a6.219 6.219 0 0 0-6.212 6.212v2.905H6.01A6.017 6.017 0 0 0 0 15.923v42.27a6.017 6.017 0 0 0 6.01 6.01h64.98a6.017 6.017 0 0 0 6.01-6.01v-42.27a6.017 6.017 0 0 0-6.01-6.01zM27.492 7.008c0-.531.432-.963.963-.963h20.09c.531 0 .963.432.963.963v2.905H27.492V7.008zM6.011 15.162H70.99c.42 0 .761.341.761.76v13.774c-8.133 3.017-20.401 4.799-33.273 4.799-12.843 0-25.095-1.776-33.229-4.783v-13.79c0-.419.342-.76.762-.76zM70.99 58.955H6.01a.762.762 0 0 1-.76-.761V35.273c7.444 2.456 17.232 3.99 27.9 4.375-.002.03-.005.06-.005.091v1.158a3.94 3.94 0 0 0 3.935 3.935h2.84a3.94 3.94 0 0 0 3.936-3.935v-1.158c0-.03-.004-.061-.005-.092 10.674-.388 20.46-1.927 27.9-4.388v22.935a.76.76 0 0 1-.761.76z" fill="#fff"/></svg>