<svg width="74" height="74" fill="none" xmlns="http://www.w3.org/2000/svg"><g clip-path="url(#clip0)" fill="#0EA4DF"><path d="M13.375 30.833h.094a7.09 7.09 0 0 0 7.203-6.68l.15-3.32a6.78 6.78 0 0 0-1.914-5.03 7.34 7.34 0 0 0-5.296-2.236h-.38a7.34 7.34 0 0 0-5.29 2.236 6.784 6.784 0 0 0-1.914 5.03l.144 3.32a7.089 7.089 0 0 0 7.203 6.68zm.094-2.466h-.094a4.63 4.63 0 0 1-4.738-4.317l-.044-1.007a11.134 11.134 0 0 0 6.448-2.42 5.507 5.507 0 0 0 3.217 2.255l-.051 1.172a4.629 4.629 0 0 1-4.738 4.316zm-.237-12.334h.38a4.874 4.874 0 0 1 3.51 1.48 4.344 4.344 0 0 1 1.204 2.77 2.919 2.919 0 0 1-1.665-2.063 1.233 1.233 0 0 0-.987-1.05 1.223 1.223 0 0 0-1.31.591c-.016.026-1.546 2.447-5.865 2.817a4.349 4.349 0 0 1 1.223-3.064 4.871 4.871 0 0 1 3.51-1.48zm48.243 44.4h.094a7.089 7.089 0 0 0 7.203-6.68l.15-3.32a6.783 6.783 0 0 0-1.914-5.03 7.336 7.336 0 0 0-5.296-2.236h-.38a7.337 7.337 0 0 0-5.29 2.236 6.785 6.785 0 0 0-1.914 5.03l.145 3.32a7.089 7.089 0 0 0 7.202 6.68zm-3.653-13.32a4.873 4.873 0 0 1 3.51-1.48h.38a4.873 4.873 0 0 1 3.51 1.48 4.353 4.353 0 0 1 1.233 3.22l-.148 3.317a4.63 4.63 0 0 1-4.738 4.317h-.094a4.63 4.63 0 0 1-4.739-4.317l-.147-3.324a4.354 4.354 0 0 1 1.233-3.213z"/><path d="M3.556 59.2c.42 0 .836-.071 1.233-.21v1.443c0 .682.552 1.233 1.233 1.233h14.8c.682 0 1.234-.552 1.234-1.233V40.436c0-.312.117-.613.33-.841l15.65-16.831a3.414 3.414 0 0 0-4.828-4.828L19.44 31.706a1.234 1.234 0 0 1-.873.36H6.022a6.174 6.174 0 0 0-6.167 6.167V55.5a3.7 3.7 0 0 0 3.7 3.7zM2.322 38.233a3.7 3.7 0 0 1 3.7-3.7h12.544a3.674 3.674 0 0 0 2.617-1.084l13.77-13.77a.974.974 0 0 1 1.338 0 .96.96 0 0 1-.016 1.36l-.014.012-15.686 16.865a3.7 3.7 0 0 0-.986 2.52V59.2H7.255V40.7a1.233 1.233 0 0 0-2.466 0v14.8a1.233 1.233 0 0 1-2.467 0V38.233z"/><path d="M13.422 53.033c.681 0 1.233-.552 1.233-1.233V37a1.233 1.233 0 1 0-2.466 0v14.8c0 .681.552 1.233 1.233 1.233zm20.92 7.4h.094a7.09 7.09 0 0 0 7.203-6.68l.144-3.32a6.783 6.783 0 0 0-1.914-5.03 7.338 7.338 0 0 0-5.29-2.236h-.38a7.338 7.338 0 0 0-5.29 2.236 6.786 6.786 0 0 0-1.914 5.03l.144 3.32a7.089 7.089 0 0 0 7.203 6.68zm-3.653-13.32a4.873 4.873 0 0 1 3.51-1.48h.38a4.873 4.873 0 0 1 3.51 1.48 4.353 4.353 0 0 1 1.233 3.22l-.148 3.317a4.63 4.63 0 0 1-4.738 4.317h-.094a4.63 4.63 0 0 1-4.739-4.317l-.148-3.324a4.353 4.353 0 0 1 1.234-3.213zm-8.633 20.514v5.14a1.233 1.233 0 1 0 2.466 0v-5.14a3.498 3.498 0 0 1 3.494-3.493H40.76a3.497 3.497 0 0 1 3.494 3.493v5.14a1.233 1.233 0 1 0 2.467 0v-5.14a5.967 5.967 0 0 0-5.96-5.96H28.015a5.967 5.967 0 0 0-5.96 5.96zm45.839-5.961H55.15a5.967 5.967 0 0 0-5.961 5.961v5.14a1.233 1.233 0 1 0 2.466 0v-5.14a3.497 3.497 0 0 1 3.495-3.493h12.745a3.497 3.497 0 0 1 3.493 3.493v5.14a1.233 1.233 0 1 0 2.467 0v-5.14a5.967 5.967 0 0 0-5.96-5.96zM70.217 0h-43.29a3.674 3.674 0 0 0-3.638 3.7v18.5a1.233 1.233 0 1 0 2.466 0V7.4H71.39V37a1.205 1.205 0 0 1-1.172 1.233H28.13a1.234 1.234 0 0 0 0 2.467h42.087a3.674 3.674 0 0 0 3.639-3.7V3.7a3.674 3.674 0 0 0-3.64-3.7zM25.755 4.933V3.7a1.205 1.205 0 0 1 1.172-1.233h43.29c.664.018 1.188.57 1.172 1.233v1.233H25.755z"/><path d="M67.689 15.725c-.682 0-1.233.552-1.233 1.233v17.575a1.233 1.233 0 0 0 2.466 0V16.958c0-.68-.552-1.233-1.233-1.233zm-4.934 7.708c-.681 0-1.233.552-1.233 1.233v9.867a1.234 1.234 0 0 0 2.467 0v-9.867c0-.68-.552-1.233-1.234-1.233zM56.589 22.2v12.333a1.233 1.233 0 0 0 2.466 0V22.2a1.233 1.233 0 0 0-2.466 0zm-3.7 6.166c-.682 0-1.234.553-1.234 1.234v4.933a1.233 1.233 0 0 0 2.467 0V29.6c0-.681-.552-1.234-1.233-1.234z"/><path d="M46.969 29.107a1.233 1.233 0 0 0 1.726.246l4.934-3.7c.155-.114.282-.263.37-.435l4.27-8.544 3.746 2.812a1.233 1.233 0 0 0 1.766-.302l4.934-7.4a1.234 1.234 0 0 0-2.052-1.369l-4.21 6.315-3.89-2.917a1.234 1.234 0 0 0-1.85.436l-4.804 9.606-4.694 3.525a1.234 1.234 0 0 0-.246 1.727zm-2.714-16.774a1.233 1.233 0 1 0 0-2.467h-14.8a1.233 1.233 0 1 0 0 2.467h14.8zm7.4 0a1.233 1.233 0 1 0 0-2.467H49.19a1.233 1.233 0 0 0 0 2.467h2.466z"/></g><defs><clipPath id="clip0"><path fill="#fff" d="M0 0h74v74H0z"/></clipPath></defs></svg>