<svg width="178" height="178" fill="none" xmlns="http://www.w3.org/2000/svg"><g clip-path="url(#clip0)" fill="#E4E7E7"><path d="M176.246.457a3.476 3.476 0 0 0-3.492.027l-63.709 37.673a3.475 3.475 0 1 0 3.538 5.985l45.711-27.03-85.143 88.344-42.347-12.955 55.265-32.68a3.477 3.477 0 0 0-3.539-5.985L20.48 90.527a3.477 3.477 0 0 0 .753 6.317l50.573 15.472 22.312 40.611a.786.786 0 0 0 .072.109 3.466 3.466 0 0 0 2.974 1.694c.891 0 1.768-.343 2.43-.991l25.656-25.073 48.256 14.764a3.482 3.482 0 0 0 3.085-.53 3.475 3.475 0 0 0 1.409-2.794V3.476a3.475 3.475 0 0 0-1.754-3.02zM94.307 114.459a3.48 3.48 0 0 0-.618 1.98v21.266l-15.236-27.731 67.418-69.952-51.564 74.437zm6.335 28.535v-21.856l17.031 5.211-17.031 16.645zm70.405-7.588l-68.314-20.899 68.314-98.618v119.517z"/><path d="M57.162 120.837a3.478 3.478 0 0 0-4.916 0L19.79 153.292a3.477 3.477 0 0 0 4.917 4.916l32.454-32.454a3.477 3.477 0 0 0 0-4.917zM13.93 164.069a3.478 3.478 0 0 0-4.916 0l-7.996 7.996a3.477 3.477 0 0 0 4.917 4.917l7.996-7.996a3.477 3.477 0 0 0 0-4.917zm35.663 7.791a3.504 3.504 0 0 0-2.458-1.018c-.918 0-1.81.372-2.457 1.018a3.497 3.497 0 0 0-1.02 2.458c0 .914.373 1.811 1.02 2.458a3.502 3.502 0 0 0 2.458 1.019 3.5 3.5 0 0 0 2.457-1.019 3.505 3.505 0 0 0 1.02-2.458c0-.918-.373-1.811-1.02-2.458zm25.867-25.866a3.476 3.476 0 0 0-4.917 0l-17.19 17.189a3.477 3.477 0 0 0 4.916 4.917l17.19-17.19a3.476 3.476 0 0 0 0-4.916zm59.328-1.321a3.478 3.478 0 0 0-4.917 0l-17.236 17.237a3.476 3.476 0 1 0 4.916 4.917l17.237-17.237a3.476 3.476 0 0 0 0-4.917zM98.56 47.39a3.503 3.503 0 0 0-2.457-1.02c-.915 0-1.811.373-2.458 1.02a3.506 3.506 0 0 0-1.019 2.46c0 .915.372 1.808 1.019 2.455a3.488 3.488 0 0 0 2.458 1.019 3.49 3.49 0 0 0 2.458-1.019 3.496 3.496 0 0 0 1.018-2.454c0-.918-.372-1.815-1.018-2.462z"/></g><defs><clipPath id="clip0"><path fill="#fff" d="M0 0h178v178H0z"/></clipPath></defs></svg>